<svg xmlns="http://www.w3.org/2000/svg" width="79.893" height="62.253" viewBox="0 0 79.893 62.253">
  <g id="Group_125193" data-name="Group 125193" transform="translate(12521.356 12316.89)">
    <path id="Path_188961" data-name="Path 188961" d="M818.808,452.278h0a7.848,7.848,0,0,1-7.848-7.848V394.867h15.7V444.43a7.848,7.848,0,0,1-7.848,7.848" transform="translate(-13301.333 -12711.757)" fill="#cde3fd"/>
    <path id="Path_188962" data-name="Path 188962" d="M818.808,450h0a5.831,5.831,0,0,1-5.831-5.831V426.543h11.662v17.628A5.831,5.831,0,0,1,818.808,450" transform="translate(-13301.333 -12711.757)" fill="#f1a34f"/>
    <path id="Path_188963" data-name="Path 188963" d="M845.534,452.278h-6.588a4.554,4.554,0,0,1-4.554-4.554V394.867h15.7v52.857a4.554,4.554,0,0,1-4.554,4.554" transform="translate(-13301.333 -12711.757)" fill="#cde3fd"/>
    <path id="Path_188964" data-name="Path 188964" d="M844.687,450h-4.9a3.384,3.384,0,0,1-3.383-3.384V421.65h11.662v24.968A3.384,3.384,0,0,1,844.687,450" transform="translate(-13301.333 -12711.757)" fill="#abddda"/>
    <path id="Path_188965" data-name="Path 188965" d="M797.606,452.278h0a7.848,7.848,0,0,1-7.848-7.848V394.867h15.7V444.43a7.848,7.848,0,0,1-7.848,7.848" transform="translate(-13301.333 -12711.757)" fill="#cde3fd"/>
    <path id="Path_188966" data-name="Path 188966" d="M797.606,450h0a5.831,5.831,0,0,1-5.831-5.831V421.65h11.662v22.521A5.831,5.831,0,0,1,797.606,450" transform="translate(-13301.333 -12711.757)" fill="#ffb93e"/>
    <rect id="Rectangle_35853" data-name="Rectangle 35853" width="4.413" height="13.106" transform="translate(-12521.356 -12267.743)" fill="#24724c"/>
    <rect id="Rectangle_35854" data-name="Rectangle 35854" width="4.413" height="13.106" transform="translate(-12445.877 -12267.743)" fill="#24724c"/>
    <rect id="Rectangle_35855" data-name="Rectangle 35855" width="79.892" height="3.828" transform="translate(-12521.355 -12267.743)" fill="#24724c"/>
  </g>
</svg>
