<svg id="Group_86642" data-name="Group 86642" xmlns="http://www.w3.org/2000/svg" xmlns:xlink="http://www.w3.org/1999/xlink" width="36.003" height="50" viewBox="0 0 36.003 50">
  <defs>
    <clipPath id="clip-path">
      <rect id="Rectangle_34949" data-name="Rectangle 34949" width="36.003" height="50" fill="#ef9310"/>
    </clipPath>
  </defs>
  <g id="Group_86641" data-name="Group 86641" clip-path="url(#clip-path)">
    <path id="Path_139790" data-name="Path 139790" d="M7.861,50c-.374-.1-.753-.181-1.12-.3A6.252,6.252,0,0,1,2.45,42.91c.342-2.89.619-5.786.927-8.68.024-.223.062-.445.1-.71l1.532.172c-.176,1.653-.346,3.25-.518,4.847-.173,1.616-.4,3.229-.51,4.849A4.45,4.45,0,0,0,6.289,47.8a4.412,4.412,0,0,0,4.975-.17,4.528,4.528,0,0,0,2.019-4.515q-.511-4.825-1.03-9.65c-.105-.986-.2-1.973-.314-2.958a.8.8,0,0,0-.9-.814q-2.391-.009-4.783,0a.8.8,0,0,0-.9.815c-.067.513-.109,1.03-.168,1.6L3.6,31.952a16.065,16.065,0,0,1,.334-2.2A2.3,2.3,0,0,1,6.3,28.111V27.6c0-3.188-.006-6.376,0-9.564a2.342,2.342,0,1,1,4.682.032q.006,4.732,0,9.466v.539a6.344,6.344,0,0,1,.915.188,2.176,2.176,0,0,1,1.54,1.845c.244,2,.449,4.006.665,6.01.245,2.279.451,4.562.734,6.836A6.274,6.274,0,0,1,9.788,49.9c-.123.023-.243.068-.365.1ZM9.423,28.109v-.467q0-4.68,0-9.358a2.048,2.048,0,0,0-.017-.437.775.775,0,0,0-1.53.02,1.6,1.6,0,0,0-.014.34v9.9Z" fill="#ef9310"/>
    <path id="Path_139791" data-name="Path 139791" d="M26.608,50c-.374-.1-.753-.181-1.12-.3A6.259,6.259,0,0,1,21.2,42.909c.406-3.487.749-6.982,1.12-10.474.072-.679.133-1.359.216-2.037A2.414,2.414,0,0,1,25.045,28.1v-.516c0-3.2,0-6.409,0-9.613a2.335,2.335,0,0,1,1.6-2.222,2.222,2.222,0,0,1,2.591.841,3.153,3.153,0,0,1,.467,1.544c.042,3.139.021,6.278.021,9.418v.556a2.551,2.551,0,0,1,1.8.691,2.408,2.408,0,0,1,.7,1.516c.333,3.119.665,6.238,1,9.428l-1.538.189c-.1-.888-.2-1.755-.3-2.622-.238-2.247-.47-4.495-.709-6.742-.068-.64-.338-.875-1-.877q-2.318,0-4.636,0c-.629,0-.908.239-.974.848q-.553,5.163-1.1,10.329c-.081.76-.176,1.518-.25,2.279a4.525,4.525,0,0,0,2.13,4.554,4.406,4.406,0,0,0,5.059-.017,4.524,4.524,0,0,0,2.1-4.569c-.054-.515-.108-1.031-.169-1.609l1.493-.172c.849,3.645-.278,6.654-3.473,8.133A13.012,13.012,0,0,1,28.17,50ZM28.17,28.11v-.519q0-4.63,0-9.26a2.309,2.309,0,0,0-.018-.486.775.775,0,0,0-1.53.024,1.675,1.675,0,0,0-.013.34v9.553c0,.109.01.219.015.348Z" fill="#ef9310"/>
    <path id="Path_139792" data-name="Path 139792" d="M35.981,17.955H34.419V2.865c0-.114,0-.227,0-.341-.009-.58-.3-.936-.762-.943s-.794.381-.8.97c-.006.748,0,1.5,0,2.245,0,1.741,0,3.481,0,5.222a2.347,2.347,0,1,1-4.684,0q-.006-3.636,0-7.272c0-.13.006-.261,0-.39a.786.786,0,0,0-.733-.774.819.819,0,0,0-.817.749,3.567,3.567,0,0,0-.008.439c0,2.473.006,4.945,0,7.418A2.328,2.328,0,0,1,24.985,12.4a2.224,2.224,0,0,1-2.586-.857,3.074,3.074,0,0,1-.458-1.5c-.046-2.456-.018-4.913-.025-7.369,0-.222.007-.519-.122-.647a1.142,1.142,0,0,0-.788-.4c-.241.042-.45.387-.627.632-.071.1-.02.285-.02.431q0,3.441,0,6.881v.562H18.812c-.006-.119-.015-.228-.015-.338,0-2.44-.005-4.88,0-7.32A2.351,2.351,0,0,1,21.145.016a2.392,2.392,0,0,1,2.336,2.491c.006,2.424,0,4.848,0,7.272,0,.13-.006.261,0,.39a.781.781,0,0,0,.779.777.769.769,0,0,0,.774-.78c.019-.52.006-1.041.006-1.562,0-2.082-.012-4.164.006-6.246A2.384,2.384,0,0,1,27.19.022a2.344,2.344,0,0,1,2.5,1.927,3.666,3.666,0,0,1,.04.68q0,3.636,0,7.271a1.568,1.568,0,0,0,.057.528.713.713,0,0,0,.843.5.764.764,0,0,0,.659-.838q0-1.707,0-3.416c0-1.4-.006-2.8,0-4.2A2.39,2.39,0,0,1,33.658.016a2.346,2.346,0,0,1,2.321,2.441q.008,7.564,0,15.129v.369" fill="#ef9310"/>
    <path id="Path_139793" data-name="Path 139793" d="M11.79,25.008V23.446c.465,0,.929,0,1.394,0a2.343,2.343,0,0,0,2.486-2.472c.005-3.107,0-6.214,0-9.322A3.977,3.977,0,0,0,15,9.4c-1.5-2.259-3-4.524-4.52-6.775A2.116,2.116,0,0,0,6.822,2.6C5.28,4.878,3.766,7.171,2.247,9.46a3.815,3.815,0,0,0-.636,2.167c0,1.055,0,2.11,0,3.2H0c.053-1.454.024-2.9.193-4.328a5,5,0,0,1,.837-2C2.488,6.226,4,3.99,5.508,1.752a3.677,3.677,0,0,1,6.255-.017c1.522,2.248,3.016,4.516,4.522,6.775a5.585,5.585,0,0,1,.951,3.173c0,3.091,0,6.182,0,9.273a3.907,3.907,0,0,1-4.066,4.052c-.451,0-.9,0-1.376,0" fill="#ef9310"/>
    <path id="Path_139794" data-name="Path 139794" d="M18.8,11.754h1.562V12.3q0,4.293,0,8.586A2.358,2.358,0,0,0,22.9,23.446c.435,0,.871,0,1.334,0v1.486c-3.244.589-5.47-1.254-5.445-4.075.024-2.862,0-5.724,0-8.586Z" fill="#ef9310"/>
    <path id="Path_139795" data-name="Path 139795" d="M10.983,44.549a2.341,2.341,0,1,1-2.351-2.355,2.348,2.348,0,0,1,2.351,2.355m-2.335.762a.778.778,0,1,0-.784-.759.784.784,0,0,0,.784.759" fill="#ef9310"/>
    <path id="Path_139796" data-name="Path 139796" d="M29.73,44.546a2.341,2.341,0,1,1-2.354-2.352,2.348,2.348,0,0,1,2.354,2.352m-2.345.765a.778.778,0,1,0-.775-.769.786.786,0,0,0,.775.769" fill="#ef9310"/>
    <path id="Path_139797" data-name="Path 139797" d="M5.488,24.959c-3.555.466-5.874-1.357-5.4-5.387H1.593c.09,1.095-.221,2.263.7,3.182s2.082.629,3.2.707Z" fill="#ef9310"/>
    <path id="Path_139798" data-name="Path 139798" d="M34.434,19.564h1.5c.465,3.485-1.278,5.877-5.416,5.406v-1.5c1.123-.093,2.292.218,3.211-.695s.634-2.081.709-3.207" fill="#ef9310"/>
    <rect id="Rectangle_34948" data-name="Rectangle 34948" width="1.507" height="1.499" transform="translate(0.081 16.444)" fill="#ef9310"/>
    <path id="Path_139800" data-name="Path 139800" d="M17.242,38.007c-.067-.053-.168-.1-.2-.169a.3.3,0,0,1,.009-.263,7.135,7.135,0,0,1,.617-.625.215.215,0,0,1,.337.038.364.364,0,0,1,.022.322,6.96,6.96,0,0,1-.6.615.68.68,0,0,1-.183.082" fill="#ef9310"/>
    <path id="Path_139801" data-name="Path 139801" d="M18.675,36.019a1.217,1.217,0,0,1-.222-.127c-.177-.167-.349-.34-.517-.515a.268.268,0,0,1-.021-.394.273.273,0,0,1,.395.011,6.425,6.425,0,0,1,.524.533.363.363,0,0,1,.055.294c-.023.078-.135.13-.214.2" fill="#ef9310"/>
    <path id="Path_139802" data-name="Path 139802" d="M18.119,40.9a1.441,1.441,0,0,1-.145.235c-.157.167-.321.329-.486.488a.274.274,0,0,1-.407.031.262.262,0,0,1,.021-.4,6.728,6.728,0,0,1,.533-.522.355.355,0,0,1,.292-.045c.077.024.125.136.192.217" fill="#ef9310"/>
    <path id="Path_139803" data-name="Path 139803" d="M18.945,39.51c-.05.062-.094.167-.167.193a.337.337,0,0,1-.281-.03,7.143,7.143,0,0,1-.6-.594.234.234,0,0,1,.021-.345.226.226,0,0,1,.329-.035c.222.2.429.42.636.636.032.033.034.094.061.175" fill="#ef9310"/>
  </g>
</svg>
