<svg xmlns="http://www.w3.org/2000/svg" xmlns:xlink="http://www.w3.org/1999/xlink" width="183" height="127.466" viewBox="0 0 183 127.466">
  <defs>
    <clipPath id="clip-path">
      <rect id="Rectangle_34950" data-name="Rectangle 34950" width="123.003" height="118.932" fill="none"/>
    </clipPath>
  </defs>
  <g id="Group_125193" data-name="Group 125193" transform="translate(-397 -3057)">
    <g id="Group_86644" data-name="Group 86644" transform="translate(419 3065.533)">
      <g id="Group_86643" data-name="Group 86643" clip-path="url(#clip-path)">
        <path id="Path_139804" data-name="Path 139804" d="M123,109.656a2.564,2.564,0,0,1-2.678,1.114c-3.849-.582-6.9.672-9.791,3.33-4.494,4.129-10.143,5.12-16.084,4.748a1.793,1.793,0,0,1-1.785-1.745,1.647,1.647,0,0,1,1.188-2.017,4.725,4.725,0,0,1,2.132-.235c5.194.436,9.57-1.392,13.4-4.774.18-.159.388-.289.552-.463a8.244,8.244,0,0,1,7.307-2.737c1.782.2,1.818.02,1.818-1.752q0-14.465,0-28.928c0-1.716-.034-1.732-1.738-1.753-4.459-.057-3.558.7-7.05-3.214A13.354,13.354,0,0,0,99.6,66.506c-6.841.052-13.683.012-20.525.019a2.571,2.571,0,0,0-1.33.163c1.8,1.767,3.493,3.554,5.3,5.224a2.2,2.2,0,0,0,1.589.414c2,.006,4,0,6,0a4.322,4.322,0,0,1,1.989.363,2.122,2.122,0,0,1,1.212,2.264,1.982,1.982,0,0,1-1.952,1.631c-1.23.086-2.47-.058-3.7.088-.157.507.246.677.472.909,1.174,1.2,2.379,2.375,3.555,3.574a7.551,7.551,0,0,1,2.27,5.273,2.934,2.934,0,0,0,1.421,2.589,20.717,20.717,0,0,0,10.776,3.236,8.522,8.522,0,0,1,2.49.288,2.189,2.189,0,0,1,1.56,2.169,2.091,2.091,0,0,1-2.074,1.805,25.219,25.219,0,0,1-15.09-3.876,1.369,1.369,0,0,0-1.912.043A7.966,7.966,0,0,1,80.8,91.834c-.325-.353-.685-.673-1-1.029Q74.5,85.373,69.071,80.078c-.735-.683-1.434-1.4-2.136-2.11a1.076,1.076,0,0,0-1.569-.207,2.278,2.278,0,0,1-3.161-.257,3.4,3.4,0,0,0-2.385-.905c-6.443.02-12.884,0-19.325.017-2.462.007-3.686,1.142-3.838,3.473a3.291,3.291,0,0,0,2.94,2.865,12.874,12.874,0,0,0,2.389.178c8.8,0,17.606.023,26.409-.014a7.392,7.392,0,0,1,6.253,11.712,1.475,1.475,0,0,0-.006,1.934,7.313,7.313,0,0,1,.063,8.652,1.437,1.437,0,0,0,.006,1.845,7.336,7.336,0,0,1,1.23,6.6c-.238.793.112,1,.829.985q1.2-.029,2.4,0c2.352-.056,4.7-.021,7.056-.02a4.58,4.58,0,0,1,1.3.165,1.79,1.79,0,0,1,1.425,2.5c-.338,1.122-1.179,1.388-2.236,1.383q-6.183-.025-12.367,0c-3.161.007-6.324-.018-9.482.065a7.146,7.146,0,0,1-6.721-10.615c.295-.495.107-.611-.308-.86-3.718-2.217-4.843-5.929-2.977-9.762.186-.382.426-.628-.151-.907a7.089,7.089,0,0,1-3.092-9.46c.031-.064,0-.156,0-.353-2,0-3.99,0-5.981,0-2.041-.007-4.088.076-6.12-.058A7.049,7.049,0,0,1,33.468,76.6c.065-.14.132-.281.247-.528a41.845,41.845,0,0,1-9.628-2.458A38.118,38.118,0,0,1,32.388.491c13.187-2,24.53,2.13,33.773,11.8a1.735,1.735,0,0,0,2.106.621c3.61-1.171,7.136-.257,10.59.773A94.559,94.559,0,0,1,96.8,21.554a3.9,3.9,0,0,1,1.148,1.035c3.65,4.508,7.291,9.022,10.97,13.5a2.591,2.591,0,0,1,.5,2.853c-1.356,3.58-2.668,7.175-4.169,10.7-.843,1.98-2.016,2.986-4.347,2.92-5.758-.164-11.522-.083-17.284-.092a3.819,3.819,0,0,1-1.6-.423c-2.1-.959-4.223-1.886-6.321-2.862-.6-.278-.942-.377-1.167.44a28.809,28.809,0,0,1-2.672,6.387.855.855,0,0,0,.208,1.221c1.663,1.62,3.315,3.252,4.92,4.927a1.814,1.814,0,0,0,1.525.457c7.043,0,14.089.083,21.131-.029,5.479-.086,10.041,1.725,13.488,6A4.405,4.405,0,0,0,117.5,70.52c.981-.138,2,.033,3-.039A2.432,2.432,0,0,1,123,71.705Z" transform="translate(0 0)"/>
        <path id="Path_139805" data-name="Path 139805" d="M76.7,106.948c-.031-1.652-.577-2.206-2.244-2.225-2.555-.03-5.111-.042-7.665-.061-.32-.428-.088-.853.039-1.257a6.65,6.65,0,0,0-1.194-6.444,1.647,1.647,0,0,1,.012-2.325,6.6,6.6,0,0,0-.221-8.318c-.47-.6-.731-1.169-.163-1.816A7.192,7.192,0,0,0,67,80.493c.033-.282.051-.685.542-.608l1.647,1.562a7.4,7.4,0,0,0,10.391.087c.576-.536.854-.5,1.445-.057a21.98,21.98,0,0,0,10.545,3.939c1.384.191,2.787.27,4.183.337,1.515.071,2.386-.555,2.455-1.673.067-1.1-.777-1.871-2.263-1.911a28.135,28.135,0,0,1-8.937-1.559,14.138,14.138,0,0,1-4.555-2.6,1.488,1.488,0,0,1-.567-1.346A7.478,7.478,0,0,0,79.5,70.625a54.785,54.785,0,0,1-4.505-4.831c1.534,0,3.07.024,4.6-.008a1.671,1.671,0,0,0,1.733-1.647A1.766,1.766,0,0,0,79.7,62.246a6.415,6.415,0,0,0-.957-.039c-2.2,0-4.4-.037-6.6.018a2.322,2.322,0,0,1-1.874-.8c-1.805-1.859-3.661-3.671-5.515-5.518.375-.368.749-.208,1.076-.209,7.4-.011,14.807.014,22.209-.018,3.913-.017,7.327,1.224,9.7,4.346,2.142,2.816,4.666,4.189,8.186,3.537,1-.183,1.243.208,1.238,1.211q-.061,15.307.007,30.614c.006,1.127-.352,1.412-1.345,1.255a9.056,9.056,0,0,0-8.19,2.844,17.442,17.442,0,0,1-9.75,5.039,41.746,41.746,0,0,1-5.272.2c-1.415.029-1.887.435-2.21,1.842-.9,0-1.8.008-2.694-.021a1.084,1.084,0,0,0-1.017.4" transform="translate(12.26 10.538)" fill="#f6af80"/>
        <path id="Path_139806" data-name="Path 139806" d="M44.138,71.435A32.594,32.594,0,0,1,25.19,69.81a34.525,34.525,0,0,1,6.183-66.2,32.136,32.136,0,0,1,12.269.027,25.637,25.637,0,0,1,9.481,5.189A36.228,36.228,0,0,1,66.351,30.492a2.549,2.549,0,0,1,.033,1.534c-.106.171-.237.285-.454.2a2.98,2.98,0,0,1-.565-1.431c-2.551-9.54-8.384-16.288-17.553-19.871-8.07-3.153-16.058-2.5-23.757,1.526a2.133,2.133,0,0,0-1.188,2.375,8.067,8.067,0,0,1-3.091,2.456c-1.308-.559-2.232-.034-3.146.935A26.9,26.9,0,0,0,9.452,32.854a27.732,27.732,0,0,0,4.984,21.377A27.8,27.8,0,0,0,35.6,66.032,27.542,27.542,0,0,0,55,60.209,27.786,27.786,0,0,0,65.558,43.422a4.066,4.066,0,0,1,.567-1.813.348.348,0,0,1,.345-.069,1.358,1.358,0,0,1,.224,1.248A36.82,36.82,0,0,1,46.768,70.4c-.844.438-1.765.66-2.63,1.037" transform="translate(0.578 0.574)" fill="#4cbb88"/>
        <path id="Path_139807" data-name="Path 139807" d="M85.031,46.357c-3.915-.006-7.829-.021-11.745-.014-1.357,0-2.372-.881-3.55-1.33-1.525-.582-2.977-1.353-4.479-2a.76.76,0,0,1-.552-.988,37.97,37.97,0,0,0-5.865-27.615c-.107-.165-.2-.338-.345-.582a6.828,6.828,0,0,1,4.192-.136c4.3,1.185,8.2,3.284,12.206,5.164A15.692,15.692,0,0,1,80.52,23.74c2.69,3.428,5.458,6.793,8.221,10.163a2.444,2.444,0,0,1,.488,2.728c-1.076,2.8-2.094,5.617-3.248,8.385a2.481,2.481,0,0,1-.949,1.34" transform="translate(11.075 2.542)" fill="#594333"/>
        <path id="Path_139808" data-name="Path 139808" d="M37.677,71.338c1.86-1.135,3.881-1.966,5.725-3.146A36.2,36.2,0,0,0,55.651,55.248a37.207,37.207,0,0,0,4.3-12.563A9.964,9.964,0,0,0,60,41.491a14.375,14.375,0,0,1-.08-3.322c.049-2.1-.157-4.191-.158-6.288a28.065,28.065,0,0,0-2.178-8.153,35.415,35.415,0,0,0-8.808-12.788,34.99,34.99,0,0,0-11.2-7.155,2.627,2.627,0,0,1-.394-.244A29.678,29.678,0,0,1,50.493,8.908C62.317,17.434,67.581,29.091,65.058,43.42c-2.587,14.688-11.8,23.851-26.2,27.748a9.671,9.671,0,0,1-1.181.17" transform="translate(7.039 0.671)" fill="#32835e"/>
        <path id="Path_139809" data-name="Path 139809" d="M74.016,77.7c-.486.408-.161.987-.309,1.466a7.117,7.117,0,0,1-1.676,3.261c-.451.431-.609.844-.07,1.3,2.352,2.006,2.385,6.886.291,9.078-.522.546-.535.969.043,1.677a6.873,6.873,0,0,1,1.344,6.733c-.132.417-.252.838-.377,1.257h-3.83a20.585,20.585,0,0,0,.653-2.612,6.822,6.822,0,0,0-1.853-5.621c-.4-.434-.431-.654-.042-1.137a7,7,0,0,0-.023-9.416c-.341-.415-.524-.643-.069-1.16a6.74,6.74,0,0,0,1.164-7.795,6.86,6.86,0,0,0-6.758-4.087q-13.8.02-27.6,0c-2.741,0-4-.965-4.349-3.26a2.62,2.62,0,0,1,1.293-.153q15.082.011,30.164,0a11.486,11.486,0,0,1,1.667.114L74.016,77.7" transform="translate(5.784 12.727)" fill="#e19d78"/>
        <path id="Path_139810" data-name="Path 139810" d="M75.536,79.5a3.4,3.4,0,0,1-2.787-1.271q-7.22-7.195-14.43-14.4c-.505-.5-.577-.815-.025-1.34,1.447-1.377,2.856-2.8,4.242-4.236.451-.467.722-.542,1.225-.034,4.871,4.91,9.777,9.783,14.652,14.688a3.727,3.727,0,0,1,.831,4.406,3.563,3.563,0,0,1-3.709,2.19" transform="translate(10.964 10.956)" fill="#3e3d42"/>
        <path id="Path_139811" data-name="Path 139811" d="M84.364,46.315c1.635-3.424,2.8-7.034,4.2-10.554.259-.654-.181-1.012-.466-1.377C86.674,32.564,85.2,30.789,83.745,29c-2-2.473-4.022-4.933-6-7.425-1.177-1.483-2.941-2.043-4.5-2.882-3.617-1.943-7.445-3.44-11.224-5.039a30.853,30.853,0,0,1,8.142,2.275,108.531,108.531,0,0,1,12.255,5.712c1.336.735,2.052,1.992,2.959,3.07,2.722,3.228,5.327,6.556,8,9.827a1.781,1.781,0,0,1,.4,2.012c-1.1,2.954-2.251,5.884-3.438,8.8a1.306,1.306,0,0,1-1.419.98c-1.518-.056-3.039-.015-4.557-.015" transform="translate(11.742 2.584)" fill="#3f2f25"/>
        <path id="Path_139812" data-name="Path 139812" d="M63.677,67.933c-.329.433-.805.272-1.221.272q-15.317.012-30.635.007a2.053,2.053,0,0,1-1.268-.239,3.446,3.446,0,0,1,3.52-3.812c6.991-.037,13.982,0,20.973-.033a1.884,1.884,0,0,1,1.408.748c1.334,1.308,2.019,1.359,3.348.137.419-.387.648-.435,1.049,0,.916,1,1.88,1.949,2.826,2.92" transform="translate(5.784 12.141)" fill="#f6af80"/>
        <path id="Path_139813" data-name="Path 139813" d="M64.038,54.439c-.15.178-.288.369-.451.533-2.877,2.882-5.765,5.753-8.627,8.649-.395.4-.621.454-1.031.02-1.012-1.074-2.066-2.111-3.129-3.136-.392-.378-.368-.611.069-.923a37.617,37.617,0,0,0,8.765-8.764c.18-.251.328-.582.712-.19,1.147,1.167,2.311,2.318,3.465,3.479a2.386,2.386,0,0,1,.227.333" transform="translate(9.565 9.551)" fill="#32835e"/>
        <path id="Path_139814" data-name="Path 139814" d="M63.4,76.107a3.366,3.366,0,0,1-3.376,3.561q-5.384.095-10.769,0a3.366,3.366,0,0,1-3.378-3.562,2.162,2.162,0,0,1,1.585-.385q7.177-.014,14.353,0a2.175,2.175,0,0,1,1.585.387" transform="translate(8.685 14.334)" fill="#f6af80"/>
        <path id="Path_139815" data-name="Path 139815" d="M63.4,76.6H45.872A3.245,3.245,0,0,1,49,73.179q5.636-.13,11.274,0A3.243,3.243,0,0,1,63.4,76.6" transform="translate(8.685 13.842)" fill="#fec79e"/>
        <path id="Path_139816" data-name="Path 139816" d="M48.487,85.709a3.331,3.331,0,0,1,3.3-3.6q3.894-.073,7.79,0a3.34,3.34,0,0,1,3.312,3.6,2.146,2.146,0,0,1-1.583.39q-5.62.014-11.238,0a2.2,2.2,0,0,1-1.585-.388" transform="translate(9.18 15.538)" fill="#fec79e"/>
        <path id="Path_139817" data-name="Path 139817" d="M48.487,85.13l14.406,0a3.284,3.284,0,0,1-3.18,3.371q-4.019.093-8.042,0a3.292,3.292,0,0,1-3.184-3.367" transform="translate(9.18 16.117)" fill="#f6af80"/>
        <path id="Path_139818" data-name="Path 139818" d="M51.292,93.779a3.359,3.359,0,0,1,3.3-2.744c1.514-.063,3.034-.044,4.55-.008a3.484,3.484,0,0,1,3.432,3.557,1.542,1.542,0,0,1-1.214.382c-2.942.025-5.884.039-8.825-.008-.715-.012-1.549-.03-1.248-1.179" transform="translate(9.699 17.227)" fill="#fdc79e"/>
        <path id="Path_139819" data-name="Path 139819" d="M51.3,93.336c-.011.806.517.819,1.126.817,3.387-.017,6.773-.011,10.16-.012a3.347,3.347,0,0,1-3.135,3.441,24.419,24.419,0,0,1-5.378-.042,3.333,3.333,0,0,1-2.773-4.2" transform="translate(9.692 17.671)" fill="#f5af80"/>
        <path id="Path_139820" data-name="Path 139820" d="M49.056,61.218H46.21c1.191-1.226,1.671-1.259,2.846,0" transform="translate(8.749 11.414)" fill="#f7f7f7"/>
        <path id="Path_139821" data-name="Path 139821" d="M65.352,40.689c-1.487,8.893-5.917,15.893-13.619,20.632A28.8,28.8,0,0,1,8.124,40.573C6.865,31.43,9.55,23.43,15.874,16.683c1.1-1.171,1.627-1.226,3.029-.421.962.985.98,1.814-.107,3a31.543,31.543,0,0,0-2.845,3.555,25.009,25.009,0,0,0,1.667,29.927A24.073,24.073,0,0,0,34.88,61.517C44.695,62.15,52.2,58.068,57.748,50.1a.478.478,0,0,0,.075-.3c-1.382.1-2.735.35-4.1.566-.4.029-.787.1-1.181.158a2.26,2.26,0,0,1-2.852-1.675,2.157,2.157,0,0,1,1.9-2.451c1.545-.364,3.135-.477,4.7-.736a10.838,10.838,0,0,0,1.659-.221c2.343-.31,2.391-.3,2.927-2.545a24.773,24.773,0,0,0-4.4-21.427c-.941-1.271-1.091-1.259-2.172-.176A11.421,11.421,0,0,0,53.089,22.6a3.931,3.931,0,0,1-1.774,1.182c-1.76.659-3.52,1.321-5.3,1.93a19.683,19.683,0,0,0-5.028,2.493,102.832,102.832,0,0,1-14.48,8.715c-1.351.651-1.372.849-.85,2.243.547,1.462,1.164,2.9,1.661,4.376a1.935,1.935,0,0,0,1.745,1.4c4.706.708,9.409,1.443,14.115,2.16a8.53,8.53,0,0,1,2.1.457,2.024,2.024,0,0,1,1.344,2.289c-.484,1.481-1.16,1.885-2.829,1.635q-6.292-.942-12.576-1.933-2.194-.341-4.4-.639a3.326,3.326,0,0,1-2.892-2.343q-1.62-4.33-3.286-8.643c-.607-1.577-.184-2.624,1.425-3.449,2.42-1.242,4.81-2.545,7.225-3.8a68.762,68.762,0,0,0,8.38-5.377,32.438,32.438,0,0,1,8.474-4.157,17.444,17.444,0,0,0,3.874-1.591,12.606,12.606,0,0,0,1.386-1.328c.8-.849.79-1.092-.169-1.792a24.4,24.4,0,0,0-9.713-4.24,25.162,25.162,0,0,0-16.439,2.364,3.375,3.375,0,0,1-1.953.47c-.614-.082-1.2-.219-1.3-.99-.431-1.5-.2-2.042,1.208-2.8A28.906,28.906,0,0,1,64.883,30.385c.069.312.164.617.246.926a5.809,5.809,0,0,1,.5,2.655c-.026,2.241.378,4.508-.278,6.722" transform="translate(1.481 1.474)"/>
        <path id="Path_139822" data-name="Path 139822" d="M53.219,49.5l4.789-.78A22.916,22.916,0,0,1,51.956,55.8c-7.808,5.982-16.428,7.388-25.5,3.612C17.426,55.652,12.2,48.6,11.032,38.9a24.157,24.157,0,0,1,6.816-20.217c.882-.934,1.214-1.843.484-2.984l2.929-2.228c1.151,1.036,1.556,1.023,3.208.227Q38.543,6.924,51.339,15.9c.735.516.874.879.146,1.508-.659.568-1.225,1.243-1.833,1.871a37.674,37.674,0,0,0-4.216-2.521c-8.212-3.625-15.943-2.807-22.955,2.809a20.458,20.458,0,0,0-7.817,17.873,21.456,21.456,0,0,0,18.32,19.918,21.181,21.181,0,0,0,19.17-6.905,3.852,3.852,0,0,1,1.066-.954" transform="translate(2.051 2.042)" fill="#bbdeeb"/>
        <path id="Path_139823" data-name="Path 139823" d="M56.229,36.981a34.923,34.923,0,0,0-.222-9.377c.063-.078.127-.157.191-.234a6.458,6.458,0,0,1,.453,2.514c.074,2.019.018,4.045.027,6.067a2.1,2.1,0,0,1-.243,1.028l-.207,0" transform="translate(10.603 5.182)" fill="#32835e"/>
        <path id="Path_139824" data-name="Path 139824" d="M52.667,48.945a17.99,17.99,0,0,1-5.894,5.331A21.083,21.083,0,0,1,33.71,57.308,21.047,21.047,0,0,1,20.842,51.6a21.09,21.09,0,0,1-6.7-12,21.329,21.329,0,0,1,4.475-17.738,20.847,20.847,0,0,1,13.892-7.909,21.343,21.343,0,0,1,16.227,4.194.842.842,0,0,1,.366.584,42.288,42.288,0,0,1-5.981,2.332,20.886,20.886,0,0,0-5.1,2.573,121.188,121.188,0,0,1-16.873,9.988c-1.71.853-1.914,1.456-1.231,3.258,1.088,2.87,2.213,5.727,3.247,8.617a2.722,2.722,0,0,0,2.423,1.958c5.768.853,11.529,1.76,17.293,2.639a1.8,1.8,0,0,0,2.379-1.374c.46-1.145,2.072-1.6,3.579-1a2.038,2.038,0,0,0,2.657,1.34,7.694,7.694,0,0,1,1.176-.106" transform="translate(2.603 2.598)" fill="#eaf3f5"/>
        <path id="Path_139825" data-name="Path 139825" d="M47.234,46.517c-.909.1-1.816.211-2.727.291a1.014,1.014,0,0,0-.85.715c-.09-1.588-.4-1.946-2.053-2.205q-7.723-1.213-15.451-2.381a1.906,1.906,0,0,1-1.8-1.424c-.573-1.782-1.262-3.531-2-5.253a1.023,1.023,0,0,1,.589-1.577c1.218-.6,2.38-1.311,3.6-1.891,4.353-2.063,8.206-4.927,12.176-7.6,2.467-1.66,5.351-2.241,8.015-3.382,1.156-.5,2.5-.622,3.375-1.688.72-.351,1.031.241,1.351.648A22.071,22.071,0,0,1,55.9,31.005a21.767,21.767,0,0,1-1.3,11.414,1.842,1.842,0,0,1-.894,1.218c-1.532.24-3.065.472-4.6.724-1.383.227-1.77.684-1.877,2.156" transform="translate(4.202 3.79)" fill="#594333"/>
        <path id="Path_139826" data-name="Path 139826" d="M49.261,44.024a21.876,21.876,0,0,0,1.984-11.2,22.247,22.247,0,0,0-4.4-11.389c-.3-.413-.571-.88-1.17-.921.705-.756,1.42-1.5,2.113-2.273.373-.414.585-.3.926.092a24.556,24.556,0,0,1,5.849,12.985A24.831,24.831,0,0,1,53.632,42.4c-.244.761-.5,1.23-1.428,1.236a22.214,22.214,0,0,0-2.942.391" transform="translate(8.647 3.403)" fill="#3f2f25"/>
      </g>
    </g>
    <g id="Group_117649" data-name="Group 117649" transform="translate(210 1394)">
      <path id="Path_179712" data-name="Path 179712" d="M418.112,57.5a12.5,12.5,0,1,0,12.5,12.5,12.5,12.5,0,0,0-12.5-12.5m0,19.636A7.136,7.136,0,1,1,425.248,70a7.136,7.136,0,0,1-7.136,7.136" transform="translate(-218.612 1605.501)" fill="#32835e"/>
      <circle id="Ellipse_4873" data-name="Ellipse 4873" cx="7" cy="7" r="7" transform="translate(356 1752)" fill="#ef9310"/>
      <g id="Group_117647" data-name="Group 117647" transform="translate(209 1769.189)">
        <path id="Path_139699" data-name="Path 139699" d="M46.16,46.828a1.384,1.384,0,1,1-1.383-1.383,1.384,1.384,0,0,1,1.383,1.383" transform="translate(-43.393 -36.993)" fill="#1b4733"/>
        <path id="Path_139700" data-name="Path 139700" d="M60.115,46.828a1.384,1.384,0,1,1-1.383-1.383,1.384,1.384,0,0,1,1.383,1.383" transform="translate(-48.267 -36.993)" fill="#1b4733"/>
        <path id="Path_139701" data-name="Path 139701" d="M74.071,46.828a1.384,1.384,0,1,1-1.384-1.383,1.384,1.384,0,0,1,1.384,1.383" transform="translate(-53.142 -36.993)" fill="#1b4733"/>
        <path id="Path_139702" data-name="Path 139702" d="M88.026,46.828a1.384,1.384,0,1,1-1.384-1.383,1.384,1.384,0,0,1,1.384,1.383" transform="translate(-58.016 -36.993)" fill="#1b4733"/>
        <path id="Path_139707" data-name="Path 139707" d="M46.16,59.814a1.384,1.384,0,1,1-1.383-1.384,1.384,1.384,0,0,1,1.383,1.384" transform="translate(-43.393 -41.529)" fill="#1b4733"/>
        <path id="Path_139708" data-name="Path 139708" d="M60.115,59.814a1.384,1.384,0,1,1-1.383-1.384,1.384,1.384,0,0,1,1.383,1.384" transform="translate(-48.267 -41.529)" fill="#1b4733"/>
        <path id="Path_139709" data-name="Path 139709" d="M74.071,59.814a1.384,1.384,0,1,1-1.384-1.384,1.384,1.384,0,0,1,1.384,1.384" transform="translate(-53.142 -41.529)" fill="#1b4733"/>
        <path id="Path_139710" data-name="Path 139710" d="M88.026,59.814a1.384,1.384,0,1,1-1.384-1.384,1.384,1.384,0,0,1,1.384,1.384" transform="translate(-58.016 -41.529)" fill="#1b4733"/>
      </g>
      <g id="Group_117648" data-name="Group 117648" transform="translate(367.452 1666) rotate(90)">
        <path id="Path_139699-2" data-name="Path 139699" d="M46.16,46.828a1.384,1.384,0,1,1-1.383-1.383,1.384,1.384,0,0,1,1.383,1.383" transform="translate(-43.393 -36.993)" fill="#ef9310"/>
        <path id="Path_139700-2" data-name="Path 139700" d="M60.115,46.828a1.384,1.384,0,1,1-1.383-1.383,1.384,1.384,0,0,1,1.383,1.383" transform="translate(-48.267 -36.993)" fill="#ef9310"/>
        <path id="Path_139701-2" data-name="Path 139701" d="M74.071,46.828a1.384,1.384,0,1,1-1.384-1.383,1.384,1.384,0,0,1,1.384,1.383" transform="translate(-53.142 -36.993)" fill="#ef9310"/>
        <path id="Path_139702-2" data-name="Path 139702" d="M88.026,46.828a1.384,1.384,0,1,1-1.384-1.383,1.384,1.384,0,0,1,1.384,1.383" transform="translate(-58.016 -36.993)" fill="#ef9310"/>
        <path id="Path_139707-2" data-name="Path 139707" d="M46.16,59.814a1.384,1.384,0,1,1-1.383-1.384,1.384,1.384,0,0,1,1.383,1.384" transform="translate(-43.393 -41.529)" fill="#ef9310"/>
        <path id="Path_139708-2" data-name="Path 139708" d="M60.115,59.814a1.384,1.384,0,1,1-1.383-1.384,1.384,1.384,0,0,1,1.383,1.384" transform="translate(-48.267 -41.529)" fill="#ef9310"/>
        <path id="Path_139709-2" data-name="Path 139709" d="M74.071,59.814a1.384,1.384,0,1,1-1.384-1.384,1.384,1.384,0,0,1,1.384,1.384" transform="translate(-53.142 -41.529)" fill="#ef9310"/>
        <path id="Path_139710-2" data-name="Path 139710" d="M88.026,59.814a1.384,1.384,0,1,1-1.384-1.384,1.384,1.384,0,0,1,1.384,1.384" transform="translate(-58.016 -41.529)" fill="#ef9310"/>
      </g>
    </g>
  </g>
</svg>
