<svg id="Group_86635" data-name="Group 86635" xmlns="http://www.w3.org/2000/svg" xmlns:xlink="http://www.w3.org/1999/xlink" width="54.326" height="50" viewBox="0 0 54.326 50">
  <defs>
    <clipPath id="clip-path">
      <rect id="Rectangle_34945" data-name="Rectangle 34945" width="54.326" height="50" fill="#ef9310" stroke="#ed922a" stroke-width="0.5"/>
    </clipPath>
  </defs>
  <g id="Group_86634" data-name="Group 86634" clip-path="url(#clip-path)">
    <path id="Path_139764" data-name="Path 139764" d="M54.325,28.5c-.881.932-1.732,1.9-2.655,2.783a1.2,1.2,0,0,1-1.643-.128c-.491-.458-.956-.943-1.431-1.418q-3.977-3.974-7.95-7.951c-.124-.125-.224-.274-.345-.424a11.578,11.578,0,0,1-9.8,1,11.166,11.166,0,0,1-6.047-4.908,11.515,11.515,0,1,1,19.736.015l2.2,2.188c.125.124.253.246.374.375a.8.8,0,0,1,.066,1.216.779.779,0,0,1-1.174-.083c-.671-.655-1.327-1.323-1.991-1.985-.124-.124-.253-.242-.339-.322L41.71,20.478l9.179,9.182,1.64-1.619c-1.223-1.221-2.511-2.507-3.8-3.794-.125-.124-.257-.244-.37-.379a.8.8,0,0,1,0-1.1.782.782,0,0,1,1.1-.015c.467.432.907.892,1.358,1.342.863.862,1.732,1.718,2.584,2.591.328.337.613.714.918,1.073Zm-20.04-7.083A9.914,9.914,0,1,0,24.4,11.491a9.9,9.9,0,0,0,9.887,9.926" fill="#ef9310" stroke="#ed922a" stroke-width="0.5"/>
    <path id="Path_139765" data-name="Path 139765" d="M11.171,14v.6q0,4.083,0,8.168a1.379,1.379,0,0,1-1.125,1.566A12.352,12.352,0,1,0,25.952,39.013a2.423,2.423,0,0,0,.034-.267l-1.451-.337c-.072.225-.15.454-.218.686A10.8,10.8,0,1,1,4.65,30.553a1.778,1.778,0,0,1,1.73-.965c4.3.016,8.592,0,12.888.017a1.137,1.137,0,0,0,1.065-.489,5,5,0,0,1,2.449-1.689,12.329,12.329,0,0,0-4.541-2.961c-.2-.074-.4-.137-.6-.214a1.267,1.267,0,0,1-.9-1.246c-.008-1.026-.012-2.051,0-3.076a.791.791,0,1,1,1.577-.034c.024.83.023,1.662,0,2.492a.5.5,0,0,0,.4.568,13.9,13.9,0,0,1,5.787,3.984.975.975,0,0,0,.449.338,6.976,6.976,0,0,1,4.44,3.439,8.431,8.431,0,0,1,1.126,6.31.661.661,0,0,0,.214.691c.594.58,1.17,1.177,1.794,1.808.676-.676,1.333-1.313,1.957-1.981a.729.729,0,0,0,.065-.535,8.561,8.561,0,0,1,3.4-8.744,4.777,4.777,0,0,1,6.424.406,4.85,4.85,0,0,1,.639,6.456c-.352.5-.807.638-1.213.368s-.452-.749-.1-1.255a3.13,3.13,0,0,0,.218-3.585,3.372,3.372,0,0,0-3.129-1.826,3.05,3.05,0,0,0-1.124.261,6.971,6.971,0,0,0-3.617,6.873c.135-.117.253-.206.357-.309,1.1-1.1,2.2-2.2,3.3-3.3a.8.8,0,0,1,1.176-.143c.4.337.375.833-.077,1.289-1.059,1.066-2.125,2.125-3.187,3.188-.124.124-.242.254-.362.38l.024.171c.714-.065,1.436-.087,2.139-.21a8.2,8.2,0,0,0,1.455-.477c.583-.22,1.036-.1,1.219.347s-.023.867-.6,1.123a8.533,8.533,0,0,1-5.281.6.743.743,0,0,0-.788.241c-.6.627-1.227,1.224-1.828,1.847a.836.836,0,0,0-.255.486c-.018,1.925-.011,3.85-.011,5.857h10.51a3.447,3.447,0,0,1,.477.01.788.788,0,0,1,.048,1.562,3.047,3.047,0,0,1-.582.019q-11.642,0-23.284.009a2.642,2.642,0,0,0-1.016.205A13.948,13.948,0,1,1,9.085,22.993a.633.633,0,0,0,.505-.708c-.02-2.581-.01-5.163-.01-7.744v-.576c-.256,0-.463.005-.669,0a1.842,1.842,0,0,1-1.87-1.787c-.038-.759-.034-1.521,0-2.28a1.835,1.835,0,0,1,1.9-1.817c1.006-.03,2.015-.009,3.023-.01q3.341,0,6.682,0c1.545,0,2.242.7,2.245,2.229,0,.53,0,1.061,0,1.591a1.891,1.891,0,0,1-2.073,2.073c-.138,0-.275,0-.481,0,0,.709.017,1.376-.005,2.041a.779.779,0,0,1-.91.849.739.739,0,0,1-.669-.814c-.005-.669,0-1.338,0-2.041ZM4.9,34.361a9.487,9.487,0,0,0,.087,3.8,9.222,9.222,0,0,0,17.925.091.606.606,0,0,0-.333-.794,7.757,7.757,0,0,1-2.72-2.7.75.75,0,0,0-.756-.41q-6.814.015-13.629.007ZM31.694,47.048a1.027,1.027,0,0,0,.047-.194c0-1.873.01-3.747,0-5.62a.8.8,0,0,0-.228-.5c-.636-.663-1.288-1.311-1.949-1.949a.652.652,0,0,0-.446-.191c-.489.05-.972.152-1.486.24a14.122,14.122,0,0,1-5.071,8.209ZM29.06,36.032c.025-.276.049-.429.05-.583a6.976,6.976,0,0,0-3.021-5.99,3.4,3.4,0,0,0-4.726,4.717,7,7,0,0,0,4.1,2.817,6.318,6.318,0,0,0,2.561.139c-.417-.372-.732-.63-1.02-.914-.93-.919-1.871-1.828-2.759-2.786a1.164,1.164,0,0,1-.219-.9.8.8,0,0,1,.6-.475,1.29,1.29,0,0,1,.814.372c1.192,1.154,2.355,2.339,3.615,3.6M13.951,12.374c1.59,0,3.179-.013,4.768.009.448.006.6-.159.579-.588a14.573,14.573,0,0,1,0-1.536c.028-.476-.178-.638-.625-.6-.228.019-.459,0-.689,0q-4.343,0-8.687,0c-.653,0-.677.029-.679.693,0,.423,0,.847,0,1.271,0,.746,0,.747.723.747q2.3,0,4.608,0m5.256,18.864a1.24,1.24,0,0,0-.2-.046q-6.28,0-12.56,0c-.127,0-.322.039-.372.125-.256.444-.476.909-.731,1.411H19.1c.037-.514.071-.986.108-1.491" fill="#ef9310" stroke="#ed922a" stroke-width="0.5"/>
    <path id="Path_139766" data-name="Path 139766" d="M31.694,47.048H22.556a14.118,14.118,0,0,0,5.07-8.209c.516-.087,1-.19,1.486-.24a.659.659,0,0,1,.447.191c.661.638,1.313,1.286,1.949,1.949a.817.817,0,0,1,.228.5c.014,1.873.007,3.747,0,5.62a1.069,1.069,0,0,1-.046.194" fill="#ef9310" stroke="#ed922a" stroke-width="0.5"/>
    <path id="Path_139767" data-name="Path 139767" d="M42.72,11.509a8.414,8.414,0,1,1-8.393-8.4,8.4,8.4,0,0,1,8.393,8.4M34.316,4.7a6.812,6.812,0,1,0,6.813,6.81A6.8,6.8,0,0,0,34.316,4.7" fill="#ef9310" stroke="#ed922a" stroke-width="0.5"/>
    <path id="Path_139768" data-name="Path 139768" d="M17.242,36.781a.773.773,0,0,1-.818.773.781.781,0,0,1,.067-1.56.769.769,0,0,1,.751.787" fill="#ef9310" stroke="#ed922a" stroke-width="0.5"/>
    <path id="Path_139769" data-name="Path 139769" d="M12.044,38.344a.782.782,0,0,1-1.564.044.76.76,0,0,1,.731-.8.774.774,0,0,1,.833.758" fill="#ef9310" stroke="#ed922a" stroke-width="0.5"/>
    <path id="Path_139770" data-name="Path 139770" d="M15.757,41.859a.772.772,0,0,1-.8.788.781.781,0,0,1-.015-1.56.771.771,0,0,1,.818.772" fill="#ef9310" stroke="#ed922a" stroke-width="0.5"/>
  </g>
</svg>
