<svg id="Group_81900" data-name="Group 81900" xmlns="http://www.w3.org/2000/svg" xmlns:xlink="http://www.w3.org/1999/xlink" width="201.139" height="200" viewBox="0 0 201.139 200">
  <defs>
    <clipPath id="clip-path">
      <rect id="Rectangle_15678" data-name="Rectangle 15678" width="201.139" height="200" fill="none"/>
    </clipPath>
  </defs>
  <g id="Group_86541" data-name="Group 86541" clip-path="url(#clip-path)">
    <path id="Path_139454" data-name="Path 139454" d="M101.267,179.629A79.982,79.982,0,1,0,21.285,99.646a80.138,80.138,0,0,0,79.982,79.983" fill="#c3e8d7" fill-rule="evenodd"/>
    <path id="Path_139455" data-name="Path 139455" d="M99.891,148.771A49.139,49.139,0,1,0,50.752,99.632a49.234,49.234,0,0,0,49.139,49.139" fill="#c3e8d7" fill-rule="evenodd"/>
    <path id="Path_139456" data-name="Path 139456" d="M49.531,176.284c-1.955-2.937-4.208-6.235-4.644-6.619a4.377,4.377,0,0,0-3.047-1.058H31.968A3.053,3.053,0,0,1,29.5,167.7l-.044-.044a12.641,12.641,0,0,1-2.054-4.466l-.061-.2q-1.044-3.328-2.087-6.657h-1.9q1.13,3.6,2.256,7.2l.062.2a13.985,13.985,0,0,0,2.447,5.143l.048.057a4.427,4.427,0,0,0,1.41,1.049v9.888a23.787,23.787,0,0,0,.369,5.1c.415,1.753,1.266,2.924,2.946,2.924,2.767,0,4.013-4.141,4.192-4.794l.027-.087,4.651-12.583h.075a2.66,2.66,0,0,1,1.856.6c.266.234,1.97,2.73,3.659,5.257ZM31.4,170.4c.185.013.376.018.573.018h7.924l-4.537,12.137-.015.069c-.134.494-.995,3.443-2.445,3.443-.612,0-.964-.608-1.18-1.521a22.572,22.572,0,0,1-.32-4.685Z" fill="#413b73" fill-rule="evenodd"/>
    <path id="Path_139457" data-name="Path 139457" d="M27.91,156.334q-1.347-4.3-2.7-8.588a13.535,13.535,0,0,0-1.606-3.58,4.469,4.469,0,0,0-2.775-2,12.018,12.018,0,0,0-2.924-.1c-.355.015-.7.03-1.107.03a.908.908,0,0,0,0,1.816c.32,0,.748-.019,1.185-.039a10.847,10.847,0,0,1,2.476.067,2.757,2.757,0,0,1,1.656,1.259,11.873,11.873,0,0,1,1.365,3.09q1.268,4.024,2.53,8.05Z" fill="#413b73" fill-rule="evenodd"/>
    <path id="Path_139458" data-name="Path 139458" d="M45.28,178.007a10.071,10.071,0,0,0,0,8.323v2.441H48.4c2.221,0,4.022-2.956,4.022-6.6s-1.8-6.6-4.022-6.6H45.28Z" fill="#30295e" fill-rule="evenodd"/>
    <path id="Path_139459" data-name="Path 139459" d="M45.28,188.771c2.215,0,4.022-2.966,4.022-6.6s-1.807-6.6-4.022-6.6-4.022,2.967-4.022,6.6,1.807,6.6,4.022,6.6" fill="#413b73" fill-rule="evenodd"/>
    <path id="Path_139460" data-name="Path 139460" d="M45.28,185.562c1.138,0,2.067-1.525,2.067-3.393s-.929-3.393-2.067-3.393-2.066,1.524-2.066,3.393.928,3.393,2.066,3.393" fill="#fff" fill-rule="evenodd"/>
    <path id="Path_139461" data-name="Path 139461" d="M44.068,181.757a.905.905,0,1,0,1.623-.8c-.245-.5-6.9-10.6-7.679-11.29a4.379,4.379,0,0,0-3.047-1.058H25.094a3.053,3.053,0,0,1-2.466-.906l-.044-.044a12.626,12.626,0,0,1-2.053-4.466l-.062-.2q-2.391-7.626-4.787-15.245a13.5,13.5,0,0,0-1.606-3.58,4.471,4.471,0,0,0-2.776-2.005,12,12,0,0,0-2.922-.1c-.357.015-.7.03-1.107.03a.908.908,0,1,0,0,1.816c.319,0,.747-.019,1.184-.039a10.856,10.856,0,0,1,2.477.067,2.757,2.757,0,0,1,1.656,1.259,11.875,11.875,0,0,1,1.363,3.09q2.4,7.615,4.787,15.246l.062.2a13.985,13.985,0,0,0,2.447,5.143l.048.057a4.457,4.457,0,0,0,1.41,1.05v9.887a23.719,23.719,0,0,0,.37,5.1c.415,1.753,1.265,2.924,2.946,2.924,2.767,0,4.012-4.141,4.191-4.794l.026-.087,4.652-12.583h.075a2.66,2.66,0,0,1,1.856.6c.544.477,7.068,10.367,7.247,10.73M24.521,170.4c.185.013.375.018.573.018h7.923L28.48,182.558l-.015.07c-.134.494-.994,3.443-2.444,3.443-.611,0-.965-.608-1.181-1.521a22.652,22.652,0,0,1-.319-4.685Z" fill="#875371" fill-rule="evenodd"/>
    <path id="Path_139462" data-name="Path 139462" d="M46.123,168.612l-15.7-.02A2.268,2.268,0,0,1,28.7,167.5l-6.358-11.08c-.345-.6-.139-1.091.459-1.089l30.937.109c.6,0,.805.492.459,1.09l-6.359,10.99a2.272,2.272,0,0,1-1.72,1.09" fill="#875371" fill-rule="evenodd"/>
    <path id="Path_139463" data-name="Path 139463" d="M55.161,153.523h-16.2a1.406,1.406,0,0,0,0,2.812h16.2a1.406,1.406,0,0,0,0-2.812" fill="#d08174" fill-rule="evenodd"/>
    <path id="Path_139464" data-name="Path 139464" d="M34.966,168.612l-12.222-.02c-.6,0-1.56-.417-1.72-1.09l-2.636-11.08c-.161-.672-.139-1.091.458-1.089l23.74.109c.6,0,.805.492.459,1.09l-6.359,10.99a2.272,2.272,0,0,1-1.72,1.09" fill="#d08174" fill-rule="evenodd"/>
    <path id="Path_139465" data-name="Path 139465" d="M44.33,153.522H18.1a1.406,1.406,0,1,0,0,2.812H44.33a1.406,1.406,0,1,0,0-2.812" fill="#ecbd78" fill-rule="evenodd"/>
    <path id="Path_139466" data-name="Path 139466" d="M83.951,42.615l3.7-14.887a4.413,4.413,0,0,1,2.469-2.542c1.961-.836,11-1.816,11-1.816a4.955,4.955,0,0,1,3.777,1.017c1.453,1.38,6.427,10.348,6.427,10.348Z" fill="#d08174" fill-rule="evenodd"/>
    <path id="Path_139467" data-name="Path 139467" d="M83.951,42.615l1.97-7.917a56.907,56.907,0,0,1,9.36-3.162,54.883,54.883,0,0,1,13.247-1.683c1.48,2.5,2.8,4.882,2.8,4.882Z" fill="#875371" fill-rule="evenodd"/>
    <path id="Path_139468" data-name="Path 139468" d="M95.187,34.127c17.016-4.2,32.379-2.209,34.314,4.444s-10.289,15.451-27.3,19.651S69.819,60.43,67.883,53.777s10.289-15.451,27.3-19.65" fill="#be7775" fill-rule="evenodd"/>
    <path id="Path_139469" data-name="Path 139469" d="M97.936,59.151c-7.776,1.479-14.975,1.636-20.4.627l8.441-15.469,2.482,1.912Z" fill="#875371" fill-rule="evenodd"/>
    <path id="Path_139470" data-name="Path 139470" d="M88.611,55.622v1.866c0,.9-.7,1.9-1.273,1.9v-2.04a1.812,1.812,0,0,0-1.8-1.5,15.743,15.743,0,0,1-1.559-2.674h.131V50.725a12.074,12.074,0,0,1,12.039-12.04h6.813A12.075,12.075,0,0,1,115,50.725v2.447h.3c-1.028,1.523-1.968,2.674-1.968,2.674a1.811,1.811,0,0,0-1.8,1.5v2.04c-.576,0-1.274-1-1.274-1.9V55.622a12.914,12.914,0,0,1-1.352-5.26h-3.231c-.312,0-.616-.4-.684-.8s-.279-3.007-.347-3.629S104.4,45,104.3,45.17s-.174,2.323-.347,3.711c-.17,1.368-.946,1.478-.97,1.481H89.416a22.3,22.3,0,0,1-.805,5.26" fill="#30295e" fill-rule="evenodd"/>
    <path id="Path_139471" data-name="Path 139471" d="M85.584,53.746s-.393,7.038-2.928,11.557a1.691,1.691,0,0,0,.027,2.074c.847,1,6.248,5.411,15.648,6.7s18.574-6.361,18.815-7.364-2.88-8.168-2.635-14.264Z" fill="#30295e" fill-rule="evenodd"/>
    <rect id="Rectangle_15677" data-name="Rectangle 15677" width="11.753" height="12.581" transform="translate(94.015 64.002)" fill="#e9baa8"/>
    <path id="Path_139472" data-name="Path 139472" d="M94.015,70.2V64s7.844.7,11.753,1.075v8.467l-.341.265Z" fill="#d58881" fill-rule="evenodd"/>
    <path id="Path_139473" data-name="Path 139473" d="M121.3,76.614c3.195,1.42,3.993,2.307,8.607,12.069s7.987,18.281,7.987,18.281,2.352,1.02,2.795,2.129a9.632,9.632,0,0,1,.09,3.55s2.928,3.55,2.041,7.721-4.571,9.051-5.68,9.629-4.083,0-4.083,0-12.466-6.969-15.305-14.423-4.97-33.544,3.548-38.956" fill="#875371" fill-rule="evenodd"/>
    <path id="Path_139474" data-name="Path 139474" d="M78.479,76.614c-3.195,1.42-3.994,2.307-8.608,12.069s-7.986,18.281-7.986,18.281-2.352,1.02-2.795,2.129a9.625,9.625,0,0,0-.089,3.55s-2.929,3.55-2.041,7.721,4.57,9.051,5.679,9.629,4.082,0,4.082,0,12.467-6.969,15.306-14.423S87,82.026,78.479,76.614" fill="#875371" fill-rule="evenodd"/>
    <path id="Path_139475" data-name="Path 139475" d="M105.779,72.528,121.3,76.614s-4.435,10.826-1.241,20.232c0,0,1.331,6.566.622,11.625-.423,3,.127,11.64.827,19.108H78.272c.7-7.468,1.249-16.105.827-19.108-.71-5.059.621-11.625.621-11.625,3.195-9.406-1.241-20.232-1.241-20.232L94,72.5c0,1.539,2.638,2.787,5.888,2.787,3.228,0,5.849-1.232,5.887-2.757" fill="#413b73" fill-rule="evenodd"/>
    <path id="Path_139476" data-name="Path 139476" d="M119.156,92.973a21.329,21.329,0,0,0,.907,3.872s.054.261.133.719l-4.166,2.013-2.539-5.508.9-4.124Z" fill="#30295e" fill-rule="evenodd"/>
    <path id="Path_139477" data-name="Path 139477" d="M121.512,127.579c.479,5.108,1.03,9.669,1.39,11.508a14.833,14.833,0,0,1,.288,3.818,49.2,49.2,0,0,1-46.6,0,14.877,14.877,0,0,1,.288-3.818c.361-1.839.912-6.4,1.391-11.508Z" fill="#d08174" fill-rule="evenodd"/>
    <path id="Path_139478" data-name="Path 139478" d="M86.317,52.322c-.092.013-.183.028-.272.046h0a3.711,3.711,0,1,0,3.1.746c.094,1.095-.08,2.45-1.478,2.586l.041-2.138a1.276,1.276,0,0,0-1.385-1.241" fill="#d58881" fill-rule="evenodd"/>
    <path id="Path_139479" data-name="Path 139479" d="M113.093,52.322c.092.013.182.028.272.046h0a3.711,3.711,0,1,1-3.1.746c-.1,1.095.08,2.45,1.478,2.586l-.041-2.138a1.276,1.276,0,0,1,1.385-1.241" fill="#d58881" fill-rule="evenodd"/>
    <path id="Path_139480" data-name="Path 139480" d="M87.8,42.07a12.593,12.593,0,0,0-.8,4.422V58.045a12.7,12.7,0,1,0,25.4,0V46.492a12.578,12.578,0,0,0-.635-3.955,12.014,12.014,0,0,0-8.807-3.853H96.151A12,12,0,0,0,87.8,42.07" fill="#e9baa8" fill-rule="evenodd"/>
    <path id="Path_139481" data-name="Path 139481" d="M90.766,39.965l2.345,4.113L112,50.118s.19-.887.4-2.085V46.492a12.6,12.6,0,0,0-.635-3.954,12.014,12.014,0,0,0-8.807-3.854H96.152a11.937,11.937,0,0,0-5.386,1.281" fill="#dc9c8d" fill-rule="evenodd"/>
    <path id="Path_139482" data-name="Path 139482" d="M96.392,61.408a3.287,3.287,0,1,0,6.573.059h0a.569.569,0,0,0-.563-.572l-5.427-.049a.569.569,0,0,0-.573.562Z" fill="#30295e" fill-rule="evenodd"/>
    <path id="Path_139483" data-name="Path 139483" d="M97.593,63.977a3.284,3.284,0,0,0,3.8.266,2.043,2.043,0,0,0-1.868-1.229,2.07,2.07,0,0,0-1.929.963" fill="#c35a5a" fill-rule="evenodd"/>
    <path id="Path_139484" data-name="Path 139484" d="M102.47,60.9l-5.1-.045a1.157,1.157,0,0,0,.548,1.263c.461.153,4.153.092,4.417-.2a1.963,1.963,0,0,0,.136-1.022" fill="#fff" fill-rule="evenodd"/>
    <path id="Path_139485" data-name="Path 139485" d="M93.4,53.686h0a.926.926,0,0,1,.923.922v1.2a.922.922,0,0,1-1.845,0v-1.2a.925.925,0,0,1,.922-.922" fill="#30295e" fill-rule="evenodd"/>
    <path id="Path_139486" data-name="Path 139486" d="M106.488,53.686h0a.924.924,0,0,1,.922.922v1.2a.922.922,0,1,1-1.844,0v-1.2a.925.925,0,0,1,.922-.922" fill="#30295e" fill-rule="evenodd"/>
    <path id="Path_139487" data-name="Path 139487" d="M98.994,57.088a9.57,9.57,0,0,0-.74,1.347c-.416,1.093,1.677,1.77,1.793.623a4.227,4.227,0,0,0-.213-1.472c-.39-1.32-.414-1.171-.84-.5" fill="#f1d3c8" fill-rule="evenodd"/>
    <path id="Path_139488" data-name="Path 139488" d="M107.231,58.671a1.743,1.743,0,1,0,1.709,1.776,1.742,1.742,0,0,0-1.709-1.776" fill="#d58881" fill-rule="evenodd"/>
    <path id="Path_139489" data-name="Path 139489" d="M92.244,58.387a1.742,1.742,0,1,0,1.709,1.774,1.741,1.741,0,0,0-1.709-1.774" fill="#d58881" fill-rule="evenodd"/>
    <path id="Path_139490" data-name="Path 139490" d="M91.841,51.9a.45.45,0,0,1-.4-.805,4.112,4.112,0,0,1,3.863.016.451.451,0,1,1-.464.773,3.2,3.2,0,0,0-2.995.016" fill="#30295e" fill-rule="evenodd"/>
    <path id="Path_139491" data-name="Path 139491" d="M107.57,51.9a3.194,3.194,0,0,0-3-.017.451.451,0,0,1-.464-.774,4.11,4.11,0,0,1,3.862-.016.451.451,0,0,1-.4.807" fill="#30295e" fill-rule="evenodd"/>
    <path id="Path_139492" data-name="Path 139492" d="M93.174,53.656h0a1.055,1.055,0,0,0-.676.245.435.435,0,0,1-.287-.219.171.171,0,0,0-.229-.072.169.169,0,0,0-.072.228.743.743,0,0,0,.344.329l-.008.01A.787.787,0,0,1,91.8,53.9a.172.172,0,0,0-.239-.024.17.17,0,0,0-.024.238,1.107,1.107,0,0,0,.5.347l0,0a1.036,1.036,0,0,1-.508-.163.17.17,0,1,0-.182.286,1.367,1.367,0,0,0,.526.2l.236.033v1.285a1.064,1.064,0,1,0,2.129,0V54.721a1.068,1.068,0,0,0-1.065-1.065" fill="#30295e" fill-rule="evenodd"/>
    <path id="Path_139493" data-name="Path 139493" d="M106.236,53.656h0a1.06,1.06,0,0,1,.677.245.436.436,0,0,0,.286-.219.17.17,0,0,1,.3.156.738.738,0,0,1-.346.329l.009.01a.787.787,0,0,0,.442-.272.172.172,0,0,1,.239-.024.17.17,0,0,1,.024.238,1.107,1.107,0,0,1-.5.347l0,0a1.046,1.046,0,0,0,.509-.163.169.169,0,1,1,.181.286,1.374,1.374,0,0,1-.525.2l-.238.033v1.285a1.064,1.064,0,1,1-2.128,0V54.721a1.067,1.067,0,0,1,1.065-1.065" fill="#30295e" fill-rule="evenodd"/>
    <path id="Path_139494" data-name="Path 139494" d="M99.891,89.615h13.2c1.343,0,4.131,1.445,4.543,5.729s3.551,28.472,3.551,28.472H78.6s3.137-24.187,3.55-28.472,3.2-5.729,4.543-5.729Z" fill="#d08174" fill-rule="evenodd"/>
    <path id="Path_139495" data-name="Path 139495" d="M113.4,91.527a2.043,2.043,0,1,1-4.037-.625c.485-3.139,1.091-6.325,1.779-9.424.287-1.295.6-2.588.948-3.867a29.628,29.628,0,0,1,1.046-3.215.585.585,0,0,1,.691-.348l2.847.747a.587.587,0,0,1,.383.812,20.156,20.156,0,0,0-1.039,3.054c-.375,1.358-.7,2.736-.992,4.113-.622,2.882-1.175,5.837-1.626,8.753" fill="#d08174" fill-rule="evenodd"/>
    <path id="Path_139496" data-name="Path 139496" d="M111.385,90.492a.723.723,0,1,1-.723.723.723.723,0,0,1,.723-.723" fill="#30295e" fill-rule="evenodd"/>
    <path id="Path_139497" data-name="Path 139497" d="M86.38,91.527a2.043,2.043,0,0,0,4.038-.625c-.486-3.139-1.092-6.325-1.779-9.424-.288-1.295-.6-2.588-.948-3.867A29.853,29.853,0,0,0,86.644,74.4a.585.585,0,0,0-.692-.348l-2.845.747a.585.585,0,0,0-.383.812,20.263,20.263,0,0,1,1.038,3.054c.375,1.358.695,2.736.993,4.113.621,2.882,1.174,5.837,1.625,8.753" fill="#d08174" fill-rule="evenodd"/>
    <path id="Path_139498" data-name="Path 139498" d="M88.4,90.492a.723.723,0,1,0,.722.723.723.723,0,0,0-.722-.723" fill="#30295e" fill-rule="evenodd"/>
    <path id="Path_139499" data-name="Path 139499" d="M59,112.643s4.76-4.284,9.463-.9" fill="none" stroke="#663b55" stroke-linecap="round" stroke-linejoin="round" stroke-width="1.417"/>
    <path id="Path_139500" data-name="Path 139500" d="M61.885,106.964s7.265-4.582,9.714-7.717" fill="none" stroke="#663b55" stroke-linecap="round" stroke-linejoin="round" stroke-width="1.417"/>
    <path id="Path_139501" data-name="Path 139501" d="M78.673,94.973s-.7-6.8-3.253-9.15" fill="none" stroke="#663b55" stroke-linecap="round" stroke-linejoin="round" stroke-width="1.417"/>
    <path id="Path_139502" data-name="Path 139502" d="M120.838,94.846s1.809-6.867,4.846-9.9" fill="none" stroke="#663b55" stroke-linecap="round" stroke-linejoin="round" stroke-width="1.417"/>
    <path id="Path_139503" data-name="Path 139503" d="M121.934,91.515a6.881,6.881,0,0,1,3.26-1.773" fill="none" stroke="#663b55" stroke-linecap="round" stroke-linejoin="round" stroke-width="1.417"/>
    <path id="Path_139504" data-name="Path 139504" d="M137.9,106.964a30.613,30.613,0,0,1-8.637-8.795" fill="none" stroke="#663b55" stroke-linecap="round" stroke-linejoin="round" stroke-width="1.417"/>
    <path id="Path_139505" data-name="Path 139505" d="M119.041,92.032s-1.734-6.651-3.056-8.9" fill="none" stroke="#30295e" stroke-linecap="round" stroke-linejoin="round" stroke-width="1.417"/>
    <path id="Path_139506" data-name="Path 139506" d="M80.546,93.51s1.783-5.63,2.028-5.924" fill="none" stroke="#30295e" stroke-linecap="round" stroke-linejoin="round" stroke-width="1.417"/>
    <path id="Path_139507" data-name="Path 139507" d="M140.783,112.643a11.4,11.4,0,0,0-9.073-1.541" fill="none" stroke="#663b55" stroke-linecap="round" stroke-linejoin="round" stroke-width="1.417"/>
    <path id="Path_139508" data-name="Path 139508" d="M105.779,72.528s-1.228,2.757-5.887,2.757c0,0,1.3,3.788,4.142,3.556s4.879-6.164,1.734-7.279Z" fill="#fff" fill-rule="evenodd"/>
    <path id="Path_139509" data-name="Path 139509" d="M94,72.528s1.228,2.757,5.887,2.757c0,0-1.3,3.788-4.142,3.556s-4.878-6.164-1.735-7.279Z" fill="#fff" fill-rule="evenodd"/>
    <path id="Path_139510" data-name="Path 139510" d="M114.941,49.5h-.511c-.045,1.872-.158,3.19-.158,3.19-1.647-.5-1.866,2.787-1.866,2.787-2-.616-1.7-6.364-1.7-6.364-2.257-.872-1.951-4.361-1.951-4.361-1.743,2.258-4.772-.565-4.772-.565-1.795,4.568-10.161-.974-10.161-.974s1.745,1.539.821,2.36-3.027-1.283-3.027-1.283A6.83,6.83,0,0,1,88.8,49.675C88.8,55.013,87,56.347,87,56.347a3.566,3.566,0,0,0-1.993-3.593s1.708-1.718.784-6.85a8.386,8.386,0,0,1-.123-1.088,12.07,12.07,0,0,1,10.479-6.131h6.814A12.08,12.08,0,0,1,114.941,49.5" fill="#30295e" fill-rule="evenodd"/>
    <path id="Path_139511" data-name="Path 139511" d="M121.478,127.208c.414,4.467.886,8.56,1.245,10.844l-44.8-3.191-.279-1.228c.167-1.438.338-3.046.5-4.737l6.192-2.461s28.342.506,37.141.773" fill="#875371" fill-rule="evenodd"/>
    <path id="Path_139512" data-name="Path 139512" d="M80.436,94.549h0a3.9,3.9,0,0,1,3.89,3.891v14.684a3.891,3.891,0,0,1-7.783,0V98.44a3.9,3.9,0,0,1,3.893-3.891" fill="#789eae" fill-rule="evenodd"/>
    <path id="Path_139513" data-name="Path 139513" d="M88.219,94.549h0a3.9,3.9,0,0,0-3.892,3.891v14.684a3.891,3.891,0,0,0,7.783,0V98.44a3.9,3.9,0,0,0-3.891-3.891" fill="#a0cdbc" fill-rule="evenodd"/>
    <path id="Path_139514" data-name="Path 139514" d="M96,94.549h0a3.9,3.9,0,0,1,3.892,3.891v14.684a3.892,3.892,0,0,1-7.784,0V98.44A3.9,3.9,0,0,1,96,94.549" fill="#6181a4" fill-rule="evenodd"/>
    <path id="Path_139515" data-name="Path 139515" d="M103.784,94.549h0a3.9,3.9,0,0,0-3.891,3.891v14.684a3.892,3.892,0,0,0,7.783,0V98.44a3.9,3.9,0,0,0-3.892-3.891" fill="#839fd1" fill-rule="evenodd"/>
    <path id="Path_139516" data-name="Path 139516" d="M111.567,94.549h0a3.9,3.9,0,0,1,3.892,3.891v14.684a3.891,3.891,0,0,1-7.783,0V98.44a3.9,3.9,0,0,1,3.891-3.891" fill="#789eae" fill-rule="evenodd"/>
    <path id="Path_139517" data-name="Path 139517" d="M119.35,94.549h0a3.9,3.9,0,0,0-3.891,3.891v14.684a3.891,3.891,0,0,0,7.783,0V98.44a3.9,3.9,0,0,0-3.892-3.891" fill="#a0cdbc" fill-rule="evenodd"/>
    <path id="Path_139518" data-name="Path 139518" d="M123.243,99.535h0a3.9,3.9,0,0,0-3.892,3.892v14.682a3.892,3.892,0,1,0,7.783,0V103.427a3.9,3.9,0,0,0-3.891-3.892" fill="#789eae" fill-rule="evenodd"/>
    <path id="Path_139519" data-name="Path 139519" d="M115.459,99.535h0a3.9,3.9,0,0,1,3.891,3.892v14.682a3.891,3.891,0,1,1-7.783,0V103.427a3.9,3.9,0,0,1,3.892-3.892" fill="#a0cdbc" fill-rule="evenodd"/>
    <path id="Path_139520" data-name="Path 139520" d="M107.676,99.535h0a3.9,3.9,0,0,0-3.891,3.892v14.682a3.891,3.891,0,1,0,7.782,0V103.427a3.9,3.9,0,0,0-3.891-3.892" fill="#6181a4" fill-rule="evenodd"/>
    <path id="Path_139521" data-name="Path 139521" d="M99.893,99.535h0a3.9,3.9,0,0,1,3.892,3.892v14.682a3.892,3.892,0,0,1-7.784,0V103.427a3.9,3.9,0,0,1,3.892-3.892" fill="#839fd1" fill-rule="evenodd"/>
    <path id="Path_139522" data-name="Path 139522" d="M92.11,99.535h0a3.9,3.9,0,0,0-3.891,3.892v14.682a3.891,3.891,0,1,0,7.783,0V103.427a3.9,3.9,0,0,0-3.892-3.892" fill="#789eae" fill-rule="evenodd"/>
    <path id="Path_139523" data-name="Path 139523" d="M84.326,99.535h0a3.9,3.9,0,0,1,3.892,3.892v14.682a3.892,3.892,0,1,1-7.783,0V103.427a3.9,3.9,0,0,1,3.891-3.892" fill="#a0cdbc" fill-rule="evenodd"/>
    <path id="Path_139524" data-name="Path 139524" d="M76.544,99.535h0a3.9,3.9,0,0,0-3.892,3.892v14.682a3.892,3.892,0,1,0,7.784,0V103.427a3.9,3.9,0,0,0-3.892-3.892" fill="#789eae" fill-rule="evenodd"/>
    <path id="Path_139525" data-name="Path 139525" d="M119.308,116.763H80.478c-1.152-1.094-3.8-3.609-4.3-4.059a3.277,3.277,0,0,0-1.82-.6h-3.35c-1.642,0-1.508,1.287-1.508,1.287v5.244c0,.036,0,.07,0,.1V132a1.983,1.983,0,0,0,1.977,1.976h56.835A1.982,1.982,0,0,0,130.285,132V113.392s.134-1.287-1.507-1.287h-3.351a3.273,3.273,0,0,0-1.819.6c-.5.45-3.148,2.965-4.3,4.059" fill="#413b73" fill-rule="evenodd"/>
    <path id="Path_139526" data-name="Path 139526" d="M69.5,127.891V132a1.983,1.983,0,0,0,1.977,1.977h5.707l0-.01-4.36-6.409a8.5,8.5,0,0,0-3.328.33" fill="#30295e" fill-rule="evenodd"/>
    <path id="Path_139527" data-name="Path 139527" d="M122.212,133.98h6.1a2.011,2.011,0,0,0,.573-.085c.3-1.171.883-4.28,1.4-7.17v-4.546l-3.969,5.1L125,130.978Z" fill="#30295e" fill-rule="evenodd"/>
    <path id="Path_139528" data-name="Path 139528" d="M131.123,123.53a2.073,2.073,0,0,1-.35.244c-.488.255-1.975.922-2.806,1.432a41.84,41.84,0,0,0-3.627,5c-.133.356.748,1.164,1.531.688,1.02-.621,2.662-1.909,2.662-1.909l-2.6,3.728s-.621,1.266-1.575,1.266h-3.04a2.583,2.583,0,0,0-2.24,1.285c-.355.621.311.843,1.265.843h1.818s-.089.466.865.466h4.859a3.453,3.453,0,0,0,2.773-1.708c.532-.91,3.239-3.639,3.727-4.748.229-.52.48-1.3.735-2.071v-.005l.068-.2c.64-2.305-1.642-5.314-4.072-4.311" fill="#e9baa8" fill-rule="evenodd"/>
    <path id="Path_139529" data-name="Path 139529" d="M68.66,123.53a2.069,2.069,0,0,0,.349.244c.488.255,1.975.922,2.807,1.432a41.729,41.729,0,0,1,3.627,5c.133.356-.748,1.164-1.531.688-1.02-.621-2.662-1.909-2.662-1.909l2.6,3.728s.62,1.266,1.574,1.266h3.04a2.581,2.581,0,0,1,2.24,1.285c.356.621-.31.843-1.264.843H77.617s.089.466-.865.466H71.893a3.452,3.452,0,0,1-2.773-1.708c-.532-.91-3.239-3.639-3.727-4.748-.229-.52-.48-1.3-.735-2.071v-.005l-.068-.2c-.641-2.305,1.642-5.314,4.071-4.311" fill="#e9baa8" fill-rule="evenodd"/>
    <line id="Line_139" data-name="Line 139" x2="60.788" transform="translate(69.497 121.288)" fill="none" stroke="#30295e" stroke-linecap="round" stroke-linejoin="round" stroke-width="0.709"/>
    <path id="Path_139530" data-name="Path 139530" d="M110.34,32.977c8.553.226,14.775,2.551,15.96,6.627,1.217,4.183-3.162,9.213-10.811,13.416l-.28.152h.091c-.038.057-.076.112-.114.167a3.25,3.25,0,0,1,.265.286c.255-.119.506-.239.755-.359,9.163-4.429,14.638-10.077,13.3-14.694-1.353-4.653-9.274-7.026-19.734-6.595a74.312,74.312,0,0,0-14.58,2.15c-2.421.6-4.745,1.288-6.944,2.052q1.827-.546,3.743-1.02a70.461,70.461,0,0,1,18.354-2.182" fill="#d08174" fill-rule="evenodd"/>
    <path id="Path_139531" data-name="Path 139531" d="M113.4,91.527a2.043,2.043,0,1,1-4.037-.625q.1-.639.205-1.279" fill="none" stroke="#875371" stroke-linecap="round" stroke-linejoin="round" stroke-width="1.417"/>
    <path id="Path_139532" data-name="Path 139532" d="M86.38,91.527a2.043,2.043,0,0,0,4.038-.625" fill="none" stroke="#875371" stroke-linecap="round" stroke-linejoin="round" stroke-width="1.417"/>
    <path id="Path_139533" data-name="Path 139533" d="M31.465,51.826a10.71,10.71,0,1,0-10.71-10.709,10.729,10.729,0,0,0,10.71,10.709" fill="#ecbd78" fill-rule="evenodd"/>
    <path id="Path_139534" data-name="Path 139534" d="M32.556,27.9a1.095,1.095,0,0,1-2.182,0l-.528-4.193a1.676,1.676,0,0,1-.023-.276,1.642,1.642,0,0,1,3.284,0,1.676,1.676,0,0,1-.023.276Z" fill="#d08174" fill-rule="evenodd"/>
    <path id="Path_139535" data-name="Path 139535" d="M32.556,54.33a1.095,1.095,0,0,0-2.182,0l-.528,4.193a1.664,1.664,0,0,0-.023.275,1.642,1.642,0,0,0,3.284,0,1.664,1.664,0,0,0-.023-.275Z" fill="#d08174" fill-rule="evenodd"/>
    <path id="Path_139536" data-name="Path 139536" d="M39.016,30.219a1.094,1.094,0,0,1-1.889-1.091l1.639-3.9a1.661,1.661,0,0,1,.118-.249,1.642,1.642,0,0,1,2.844,1.641,1.553,1.553,0,0,1-.158.227Z" fill="#d08174" fill-rule="evenodd"/>
    <path id="Path_139537" data-name="Path 139537" d="M25.8,53.1a1.095,1.095,0,0,0-1.89-1.091l-2.554,3.368a1.745,1.745,0,0,0-.157.226,1.642,1.642,0,1,0,2.844,1.642A1.66,1.66,0,0,0,24.164,57Z" fill="#d08174" fill-rule="evenodd"/>
    <path id="Path_139538" data-name="Path 139538" d="M43.454,35.454a1.094,1.094,0,0,1-1.091-1.889l3.368-2.555a1.849,1.849,0,0,1,.226-.157A1.642,1.642,0,1,1,47.6,33.7a1.66,1.66,0,0,1-.249.118Z" fill="#d08174" fill-rule="evenodd"/>
    <path id="Path_139539" data-name="Path 139539" d="M20.567,48.668a1.094,1.094,0,0,0-1.091-1.889l-3.9,1.639a1.562,1.562,0,0,0-.249.117,1.642,1.642,0,0,0,1.642,2.845,1.6,1.6,0,0,0,.226-.158Z" fill="#d08174" fill-rule="evenodd"/>
    <path id="Path_139540" data-name="Path 139540" d="M44.678,42.207a1.095,1.095,0,0,1,0-2.182l4.194-.528a1.642,1.642,0,1,1,0,3.238Z" fill="#d08174" fill-rule="evenodd"/>
    <path id="Path_139541" data-name="Path 139541" d="M18.252,42.207a1.095,1.095,0,0,0,0-2.182L14.058,39.5a1.642,1.642,0,1,0,0,3.238Z" fill="#d08174" fill-rule="evenodd"/>
    <path id="Path_139542" data-name="Path 139542" d="M42.363,48.668a1.094,1.094,0,0,1,1.091-1.889l3.9,1.639a1.562,1.562,0,0,1,.249.117,1.642,1.642,0,0,1-1.642,2.845,1.668,1.668,0,0,1-.227-.158Z" fill="#d08174" fill-rule="evenodd"/>
    <path id="Path_139543" data-name="Path 139543" d="M19.476,35.454a1.095,1.095,0,0,0,1.091-1.89L17.2,31.01h0a1.849,1.849,0,0,0-.226-.157A1.642,1.642,0,1,0,15.331,33.7a1.66,1.66,0,0,0,.249.118Z" fill="#d08174" fill-rule="evenodd"/>
    <path id="Path_139544" data-name="Path 139544" d="M37.127,53.1a1.094,1.094,0,0,1,1.889-1.091l2.554,3.368A1.641,1.641,0,1,1,38.766,57Z" fill="#d08174" fill-rule="evenodd"/>
    <path id="Path_139545" data-name="Path 139545" d="M23.914,30.219A1.094,1.094,0,0,0,25.8,29.128l-1.639-3.9a1.718,1.718,0,0,0-.118-.25A1.642,1.642,0,0,0,21.2,26.624a1.553,1.553,0,0,0,.158.227Z" fill="#d08174" fill-rule="evenodd"/>
    <path id="Path_139546" data-name="Path 139546" d="M171.045,38.226q-.089-.528-.208-1.016t-.275-.947a8.666,8.666,0,0,0-1.518-2.8,7.007,7.007,0,0,0-2.328-1.829,7.937,7.937,0,0,0-2.553-.73,10.421,10.421,0,0,0-2.9.085c-.327.054-.652.123-.976.2s-.652.178-.97.285a.138.138,0,0,0-.087.175l0,.008a16.363,16.363,0,0,0,2.906,4.9c1.937,2.159,4.862,3.8,8.835,1.806a.142.142,0,0,0,.064-.064.145.145,0,0,0,.011-.085" fill="#789eae" fill-rule="evenodd"/>
    <path id="Path_139547" data-name="Path 139547" d="M163.184,48.4a6.361,6.361,0,0,1,2.472.5,3.761,3.761,0,0,1,4.42-.93A6.9,6.9,0,0,1,183.3,50.72c0,.135,0,.27-.011.4a3.662,3.662,0,0,1,.447-.027,3.763,3.763,0,0,1,3.689,4.51c.067,0,.135-.007.2-.007a2.789,2.789,0,0,1,0,5.578H163.184a6.39,6.39,0,1,1,0-12.78" fill="#875371" fill-rule="evenodd"/>
    <path id="Path_139548" data-name="Path 139548" d="M176.421,32.188q-.038-.643-.027-1.249t.071-1.186a10.438,10.438,0,0,1,1.039-3.691,8.415,8.415,0,0,1,2.248-2.769,9.55,9.55,0,0,1,2.8-1.539,12.519,12.519,0,0,1,3.437-.673q.6-.036,1.2-.022c.407.009.813.035,1.215.077a.164.164,0,0,1,.113.06.166.166,0,0,1,.036.121v.012a19.742,19.742,0,0,1-2.109,6.536c-1.7,3.054-4.7,5.76-9.9,4.478a.168.168,0,0,1-.091-.058.162.162,0,0,1-.035-.1Z" fill="#789eae" fill-rule="evenodd"/>
    <path id="Path_139549" data-name="Path 139549" d="M173.775,50.6V38.28c0-3.471,1.642-5.308,3.283-6.874" fill="none" stroke="#663b55" stroke-linecap="round" stroke-linejoin="round" stroke-width="2.126"/>
    <path id="Path_139550" data-name="Path 139550" d="M173.775,50.6V42.376c0-2.317-1.641-3.544-3.283-4.589" fill="none" stroke="#663b55" stroke-linecap="round" stroke-linejoin="round" stroke-width="2.126"/>
    <path id="Path_139551" data-name="Path 139551" d="M187.107,58.989a5.5,5.5,0,0,0-7.617-5.066,3.235,3.235,0,0,0-3.8-.8,5.93,5.93,0,0,0-5.435-3.559" fill="none" stroke="#663b55" stroke-linecap="round" stroke-linejoin="round" stroke-width="1.417"/>
    <path id="Path_139552" data-name="Path 139552" d="M161.525,57.148a5.5,5.5,0,0,1,9.133-.518,3.233,3.233,0,0,1,3.681,1.232" fill="none" stroke="#663b55" stroke-linecap="round" stroke-linejoin="round" stroke-width="1.417"/>
    <path id="Path_139553" data-name="Path 139553" d="M175.816,165.243c2.394-5.576,4.284-12.259,2.984-17.768a.347.347,0,0,0-.676.16c1.387,5.875-.984,13.17-3.649,18.921a4.722,4.722,0,0,0,1.341-1.313" fill="#663b55" fill-rule="evenodd"/>
    <path id="Path_139554" data-name="Path 139554" d="M178.472,155.419c-.312-3.344-1.976-3.4-2.42-2.539-.348.67.049,1.9,2.42,2.539" fill="#663b55" fill-rule="evenodd"/>
    <path id="Path_139555" data-name="Path 139555" d="M178.472,155.419c2.694-1.147,2.692-2.511,2.018-2.948-.705-.459-2.145.09-2.018,2.948" fill="#663b55" fill-rule="evenodd"/>
    <path id="Path_139556" data-name="Path 139556" d="M178.472,155.419c2.207-3.015.9-4.307-.109-3.96-.811.279-1.432,1.614.109,3.96" fill="#875371" fill-rule="evenodd"/>
    <path id="Path_139557" data-name="Path 139557" d="M178.562,147.9c-1.329-2.762-2.76-2.561-3.089-1.776-.315.746.369,2.024,3.089,1.776" fill="#663b55" fill-rule="evenodd"/>
    <path id="Path_139558" data-name="Path 139558" d="M178.561,147.9c1.981-1.873,1.7-3.112,1.022-3.414-.815-.362-2.208.607-1.022,3.414" fill="#663b55" fill-rule="evenodd"/>
    <path id="Path_139559" data-name="Path 139559" d="M178.562,147.9c.923-3.252-.36-4.182-1.225-3.828s-1.305,1.969,1.225,3.828" fill="#875371" fill-rule="evenodd"/>
    <path id="Path_139560" data-name="Path 139560" d="M178.7,167.072c3.2-5.156,6.068-11.482,5.6-17.123a.348.348,0,1,0-.693.057c.495,6.016-2.939,12.876-6.432,18.164a4.744,4.744,0,0,0,1.521-1.1" fill="#663b55" fill-rule="evenodd"/>
    <path id="Path_139561" data-name="Path 139561" d="M179.742,164.585c2.571-.479,3.079-1.592,2.758-2.234-.417-.827-2.213-.872-2.758,2.234" fill="#663b55" fill-rule="evenodd"/>
    <path id="Path_139562" data-name="Path 139562" d="M179.742,164.585c2.229-1.99,2-3.379,1.275-3.778-.9-.494-2.548.521-1.275,3.778" fill="#875371" fill-rule="evenodd"/>
    <path id="Path_139563" data-name="Path 139563" d="M182.8,157.755c.172-3.028-1.147-3.567-1.823-3.066-.656.486-.7,1.954,1.823,3.066" fill="#663b55" fill-rule="evenodd"/>
    <path id="Path_139564" data-name="Path 139564" d="M182.8,157.755c3.222-.831,3.043-2.459,2.148-2.785-.714-.259-1.886.312-2.148,2.785" fill="#663b55" fill-rule="evenodd"/>
    <path id="Path_139565" data-name="Path 139565" d="M182.8,157.755c2.435-2.455,1.677-3.9.718-3.948-.91-.046-2,1.16-.718,3.948" fill="#875371" fill-rule="evenodd"/>
    <path id="Path_139566" data-name="Path 139566" d="M184.007,150.339c-.83-2.693-2.116-2.923-2.663-2.379-.615.612-.295,2.2,2.663,2.379" fill="#663b55" fill-rule="evenodd"/>
    <path id="Path_139567" data-name="Path 139567" d="M184.007,150.339c2.214-1.541,2.152-2.794,1.541-3.21-.744-.508-2.3.229-1.541,3.21" fill="#663b55" fill-rule="evenodd"/>
    <path id="Path_139568" data-name="Path 139568" d="M184.007,150.339c1.3-2.856.419-4.017-.44-3.994-.985.027-1.945,1.615.44,3.994" fill="#875371" fill-rule="evenodd"/>
    <path id="Path_139569" data-name="Path 139569" d="M181.422,170.009c4.436-4.14,8.854-9.5,9.879-15.066a.348.348,0,1,0-.684-.126c-1.092,5.937-6.2,11.662-10.951,15.856a4.731,4.731,0,0,0,1.756-.664" fill="#663b55" fill-rule="evenodd"/>
    <path id="Path_139570" data-name="Path 139570" d="M183.073,167.88c1.245-3.034-.108-3.885-.91-3.41-.661.394-.947,1.69.91,3.41" fill="#663b55" fill-rule="evenodd"/>
    <path id="Path_139571" data-name="Path 139571" d="M183.073,167.88c2.523.2,3.337-.674,3.255-1.369-.111-.947-1.886-1.556-3.255,1.369" fill="#663b55" fill-rule="evenodd"/>
    <path id="Path_139572" data-name="Path 139572" d="M183.073,167.88c3.08-1.513,2.862-3.112,1.988-3.488-.842-.362-2.293.41-1.988,3.488" fill="#875371" fill-rule="evenodd"/>
    <path id="Path_139573" data-name="Path 139573" d="M187.8,162.085c.937-2.819-.13-3.706-.91-3.454s-1.286,1.683.91,3.454" fill="#663b55" fill-rule="evenodd"/>
    <path id="Path_139574" data-name="Path 139574" d="M187.8,162.085c3.038.035,3.466-1.345,2.9-1.986-.533-.607-1.957-.553-2.9,1.986" fill="#663b55" fill-rule="evenodd"/>
    <path id="Path_139575" data-name="Path 139575" d="M187.8,162.085c2.75-1.593,2.673-3.066,1.933-3.526-.828-.515-2.488.241-1.933,3.526" fill="#875371" fill-rule="evenodd"/>
    <path id="Path_139576" data-name="Path 139576" d="M190.909,155.242c-.112-3.238-1.658-3.491-2.212-2.761-.469.619-.224,1.945,2.212,2.761" fill="#663b55" fill-rule="evenodd"/>
    <path id="Path_139577" data-name="Path 139577" d="M190.908,155.242c3.7-1.326,2.572-3.328,1.34-2.954-.643.2-1.312,1.035-1.34,2.954" fill="#663b55" fill-rule="evenodd"/>
    <path id="Path_139578" data-name="Path 139578" d="M190.908,155.242c2.211-2.677,1.309-4.045.344-4-.907.048-1.869,1.349-.344,4" fill="#875371" fill-rule="evenodd"/>
    <path id="Path_139579" data-name="Path 139579" d="M164.625,154.4s-2.45-2.2-2.4-4.622,1.273-3.165,1.29-3.794-1.23-1.679-2.975-1.394-.644,1.719-.981,4.221-.976,4.661-2.685,5.96,7.751-.371,7.751-.371" fill="#30295e" fill-rule="evenodd"/>
    <path id="Path_139580" data-name="Path 139580" d="M161.27,155.609a7.383,7.383,0,0,0-1.684-.739c-12.6-4-19.829,6.023-18.252,15.509,1.437,8.66,8.737,14.519,19.936,11.586,11.2,2.933,18.5-2.926,19.937-11.586,1.575-9.486-5.655-19.509-18.253-15.509a7.4,7.4,0,0,0-1.684.739" fill="#ca8874" fill-rule="evenodd"/>
    <path id="Path_139581" data-name="Path 139581" d="M152.654,182.46a19.879,19.879,0,0,0,8.616-.5c11.2,2.932,18.5-2.926,19.938-11.586a15.592,15.592,0,0,0-.828-8.186Z" fill="#ba7369" fill-rule="evenodd"/>
    <path id="Path_139582" data-name="Path 139582" d="M161.27,154.755a5.307,5.307,0,0,1,1.329-.788c9.947-4.268,15.654,6.427,14.411,16.549-1.135,9.241-6.9,15.492-15.74,12.361-8.841,3.131-14.605-3.12-15.74-12.361-1.243-10.122,4.465-20.817,14.411-16.549a5.287,5.287,0,0,1,1.329.788" fill="#dba376" fill-rule="evenodd"/>
    <path id="Path_139583" data-name="Path 139583" d="M176.969,164.687a22.679,22.679,0,0,1,.041,5.829c-1.135,9.24-6.9,15.492-15.74,12.361a10.836,10.836,0,0,1-8.854-.243Z" fill="#ca8874" fill-rule="evenodd"/>
    <path id="Path_139584" data-name="Path 139584" d="M155.68,181.715c-6.212-7.485-6.722-28.722,5.589-28.606,11.968-.112,11.82,19.949,6.1,27.947-2.9,4.056-8.421,4.6-11.687.659" fill="#ecbd78" fill-rule="evenodd"/>
    <path id="Path_139585" data-name="Path 139585" d="M155.68,181.715c-.244-.295-.481-.614-.707-.951l16.116-11.78c-.277,4.587-1.625,9.139-3.722,12.072-2.9,4.056-8.421,4.6-11.687.659" fill="#dba376" fill-rule="evenodd"/>
    <path id="Path_139586" data-name="Path 139586" d="M194.9,171.573a46.015,46.015,0,0,1-8.185,1.9c-3.1.5-3.649-.737-1.107-2.491a44.47,44.47,0,0,1,7.144-4.237c3.6-1.314,5.657,3.3,2.148,4.833" fill="#6181a4" fill-rule="evenodd"/>
    <path id="Path_139587" data-name="Path 139587" d="M190.963,170.508a46.1,46.1,0,0,1-7.6,3.575c-2.924,1.143-3.724.049-1.607-2.2a44.418,44.418,0,0,1,6.092-5.644c3.248-2.045,6.226,2.038,3.118,4.271" fill="#789eae" fill-rule="evenodd"/>
    <path id="Path_139588" data-name="Path 139588" d="M190.71,170.284a46,46,0,0,0-7.887,2.894c-2.869,1.277-2.651,2.615.437,2.691a44.43,44.43,0,0,0,8.3-.365c3.737-.873,2.926-5.861-.847-5.22" fill="#a0cdbc" fill-rule="evenodd"/>
    <path id="Path_139589" data-name="Path 139589" d="M174.758,169.246c-4.22,1.583-11.9,7.317-15.972,10.483-5.654,4.4-4.219,7.833,2.883,6.9,5.111-.669,14.591-2.1,18.684-3.994,7.916-3.656,2.569-16.454-5.6-13.394" fill="#d08174" fill-rule="evenodd"/>
    <path id="Path_139590" data-name="Path 139590" d="M159.363,179.281s1.253,1.172,2.027,4.95" fill="none" stroke="#be7775" stroke-linecap="round" stroke-linejoin="round" stroke-width="1.417"/>
    <path id="Path_139591" data-name="Path 139591" d="M168.507,185.615a25.955,25.955,0,0,0-2.128-7.4" fill="none" stroke="#be7775" stroke-linecap="round" stroke-linejoin="round" stroke-width="1.417"/>
    <path id="Path_139592" data-name="Path 139592" d="M170.093,171.685a31.548,31.548,0,0,1,3.28,8.083" fill="none" stroke="#be7775" stroke-linecap="round" stroke-linejoin="round" stroke-width="1.417"/>
    <path id="Path_139593" data-name="Path 139593" d="M180.161,182.727s-.16-5.788-1.887-9.212" fill="none" stroke="#be7775" stroke-linecap="round" stroke-linejoin="round" stroke-width="1.417"/>
    <path id="Path_139594" data-name="Path 139594" d="M99.891,200a15.008,15.008,0,1,0-15.008-15.009A15.036,15.036,0,0,0,99.891,200" fill="#88d2b0" fill-rule="evenodd"/>
    <path id="Path_139595" data-name="Path 139595" d="M97.366,183.13l2.274-3.838a.811.811,0,0,0-.1-.686l-2.574-4.032h0c-.01-.016-.182-.269-.348.009l-3.555,6a.4.4,0,0,0,.138.541l3.623,2.147a.4.4,0,0,0,.541-.139" fill="#fff" fill-rule="evenodd"/>
    <path id="Path_139596" data-name="Path 139596" d="M101.459,180.543l-4.206-6.59a.21.21,0,0,1,.064-.291l4.453-.893c.252-.05.615-.069.709.078l3.194,5.005a.3.3,0,0,0,.429.085l.929-.593a.211.211,0,0,1,.315.243l-1.392,4.271c-.293.9-.087.733-1.025.62l-4.416-.53a.211.211,0,0,1-.088-.387l.929-.594a.3.3,0,0,0,.105-.424" fill="#fff" fill-rule="evenodd"/>
    <path id="Path_139597" data-name="Path 139597" d="M104.131,184.367l2.011,3.982a.812.812,0,0,0,.632.287h4.784c.019,0,.325-.01.178-.3l-3.142-6.224a.4.4,0,0,0-.531-.175l-3.757,1.9a.4.4,0,0,0-.175.531" fill="#fff" fill-rule="evenodd"/>
    <path id="Path_139598" data-name="Path 139598" d="M104.006,189.11h7.817a.212.212,0,0,1,.211.211l-1.643,4.232c-.094.241-.274.557-.447.557h-5.938a.3.3,0,0,0-.3.316v1.1a.21.21,0,0,1-.373.135l-2.851-3.471c-.6-.73-.572-.469.028-1.2l2.823-3.436a.21.21,0,0,1,.373.134v1.1a.3.3,0,0,0,.3.316" fill="#fff" fill-rule="evenodd"/>
    <path id="Path_139599" data-name="Path 139599" d="M99.157,189.121l-4.461-.052a.812.812,0,0,0-.545.429l-2.205,4.245h0c-.008.016-.141.292.182.295l6.973.081a.4.4,0,0,0,.4-.391l.049-4.209a.4.4,0,0,0-.391-.4" fill="#fff" fill-rule="evenodd"/>
    <path id="Path_139600" data-name="Path 139600" d="M94.942,186.876l-3.6,6.938a.212.212,0,0,1-.285.09l-3-3.41c-.17-.193-.367-.5-.287-.652l2.737-5.271a.3.3,0,0,0-.141-.413l-.979-.508a.212.212,0,0,1,.054-.395l4.394-.93c.923-.195.679-.291,1.05.579l1.749,4.088a.212.212,0,0,1-.292.271q-.489-.257-.979-.508a.3.3,0,0,0-.419.121" fill="#fff" fill-rule="evenodd"/>
    <path id="Path_139601" data-name="Path 139601" d="M186.131,116.445a15.008,15.008,0,1,0-15.009-15.008,15.037,15.037,0,0,0,15.009,15.008" fill="#88d2b0" fill-rule="evenodd"/>
    <path id="Path_139602" data-name="Path 139602" d="M116.241,12.441a88.488,88.488,0,0,1,37.048,16.315M182.8,67.673a88.09,88.09,0,0,1,3.883,12.8m-.468,40.753c-1.124,4.548-4.69,15.348-8.442,20.8M135.288,181.43a88.21,88.21,0,0,1-18,5.625m-34.886-.02A88.287,88.287,0,0,1,57.291,177.9M16.576,130.949a88.14,88.14,0,0,1-3.509-11.881m.391-40.135a88.22,88.22,0,0,1,4.5-13.656M56.178,22.412A88.313,88.313,0,0,1,84.685,12.236" fill="none" stroke="#1d4733" stroke-linecap="round" stroke-linejoin="round" stroke-width="2.126" stroke-dasharray="2.126 6.378"/>
    <path id="Path_139603" data-name="Path 139603" d="M134.179,59.217q-.047-.8-.033-1.552c.009-.51.039-1,.086-1.473a12.992,12.992,0,0,1,1.293-4.586,10.45,10.45,0,0,1,2.792-3.441,11.914,11.914,0,0,1,3.485-1.912,15.589,15.589,0,0,1,4.271-.837q.742-.043,1.493-.027c.505.013,1.01.044,1.51.1a.2.2,0,0,1,.139.075.2.2,0,0,1,.045.151l0,.014a24.455,24.455,0,0,1-2.62,8.122c-2.115,3.794-5.84,7.155-12.3,5.563a.2.2,0,0,1-.156-.193Z" fill="#a0cdbc" fill-rule="evenodd"/>
    <path id="Path_139604" data-name="Path 139604" d="M134.179,59.217s7.708-9.3,15.036-13.657" fill="none" stroke="#e4f0ec" stroke-linecap="round" stroke-linejoin="round" stroke-width="1.417"/>
    <path id="Path_139605" data-name="Path 139605" d="M135.633,51.4s.483,4.8.579,5.5l7.242.842" fill="none" stroke="#e4f0ec" stroke-linecap="round" stroke-linejoin="round" stroke-width="1.417"/>
    <path id="Path_139606" data-name="Path 139606" d="M138.979,47.674c.145,1.422.516,5.069.6,5.715l6.859.8" fill="none" stroke="#e4f0ec" stroke-linecap="round" stroke-linejoin="round" stroke-width="1.417"/>
    <path id="Path_139607" data-name="Path 139607" d="M142.669,45.978c.167,1.628.378,3.657.442,4.124l4.939.575" fill="none" stroke="#e4f0ec" stroke-linecap="round" stroke-linejoin="round" stroke-width="1.417"/>
    <path id="Path_139608" data-name="Path 139608" d="M146.046,45.418c.1.986.2,1.835.235,2.117l2.591.3" fill="none" stroke="#e4f0ec" stroke-linecap="round" stroke-linejoin="round" stroke-width="1.417"/>
    <path id="Path_139609" data-name="Path 139609" d="M59.538,145.126c.05-.841.066-1.657.053-2.448s-.061-1.577-.138-2.322a20.429,20.429,0,0,0-2.037-7.23,16.457,16.457,0,0,0-4.4-5.426,18.72,18.72,0,0,0-5.495-3.015,24.6,24.6,0,0,0-6.732-1.32q-1.171-.069-2.355-.041c-.8.017-1.593.068-2.382.15h0a.326.326,0,0,0-.291.357l0,.023a38.665,38.665,0,0,0,4.133,12.806c3.334,5.982,9.207,11.28,19.4,8.77a.323.323,0,0,0,.247-.3Z" fill="#a0cdbc" fill-rule="evenodd"/>
    <path id="Path_139610" data-name="Path 139610" d="M59.538,145.126S47.384,130.464,35.83,123.591" fill="none" stroke="#e4f0ec" stroke-linecap="round" stroke-linejoin="round" stroke-width="1.417"/>
    <path id="Path_139611" data-name="Path 139611" d="M57.246,132.8s-.761,7.562-.914,8.678l-11.419,1.328" fill="none" stroke="#e4f0ec" stroke-linecap="round" stroke-linejoin="round" stroke-width="1.417"/>
    <path id="Path_139612" data-name="Path 139612" d="M51.968,126.924c-.227,2.243-.813,7.992-.952,9.011L40.2,137.193" fill="none" stroke="#e4f0ec" stroke-linecap="round" stroke-linejoin="round" stroke-width="1.417"/>
    <path id="Path_139613" data-name="Path 139613" d="M46.15,124.251c-.263,2.567-.6,5.765-.7,6.5l-7.788.906" fill="none" stroke="#e4f0ec" stroke-linecap="round" stroke-linejoin="round" stroke-width="1.417"/>
    <path id="Path_139614" data-name="Path 139614" d="M40.827,123.368c-.164,1.555-.309,2.894-.369,3.338l-4.087.475" fill="none" stroke="#e4f0ec" stroke-linecap="round" stroke-linejoin="round" stroke-width="1.417"/>
    <path id="Path_139615" data-name="Path 139615" d="M99.891,20.916A10.458,10.458,0,1,0,89.433,10.459,10.477,10.477,0,0,0,99.891,20.916" fill="#88d2b0" fill-rule="evenodd"/>
    <path id="Path_139616" data-name="Path 139616" d="M103.872,9.576a4.746,4.746,0,0,1,.362.669l.008.018a4.745,4.745,0,1,1-8.7,0v0a4.564,4.564,0,0,1,.369-.685l3.55-6.541a.488.488,0,0,1,.86,0Z" fill="#fff" fill-rule="evenodd"/>
    <path id="Path_139617" data-name="Path 139617" d="M181.335,93.262a.2.2,0,1,0,.349-.2l-.39-.676a.2.2,0,1,0-.349.2Zm4.593-1.338a.2.2,0,0,0,.4,0v-.78a.2.2,0,1,0-.4,0Zm4.648,1.138a.2.2,0,0,0,.35.2l.39-.675a.2.2,0,0,0-.075-.276.2.2,0,0,0-.274.075Zm3.457,3.308a.2.2,0,0,0,.2.349l.676-.39a.2.2,0,1,0-.2-.349Zm.506,4.592a.2.2,0,1,0,0,.4h.78a.2.2,0,0,0,0-.4Zm-1.782,4.278a.2.2,0,1,0-.2.35l.675.39a.2.2,0,0,0,.2-.35Zm-13.053.35a.2.2,0,0,0-.2-.35l-.675.39a.2.2,0,0,0-.075.276.2.2,0,0,0,.275.074Zm-1.982-4.223a.2.2,0,1,0,0-.4h-.78a.2.2,0,0,0,0,.4Zm.3-4.648a.2.2,0,1,0,.2-.349l-.676-.39a.2.2,0,1,0-.2.349Z" fill="#413b73" fill-rule="evenodd"/>
    <path id="Path_139618" data-name="Path 139618" d="M185.443,108.241h1.377a.787.787,0,0,1,.783.785v2a.786.786,0,0,1-.783.784h-1.377a.787.787,0,0,1-.784-.784v-2a.787.787,0,0,1,.784-.785" fill="#30295e" fill-rule="evenodd"/>
    <path id="Path_139619" data-name="Path 139619" d="M187.359,109.587H184.9v-2.008a.5.5,0,0,1,.5-.5h1.453a.5.5,0,0,1,.5.5Z" fill="#12131f" fill-rule="evenodd"/>
    <path id="Path_139620" data-name="Path 139620" d="M186.131,92.707a7.076,7.076,0,0,0-3.888,12.99l.027.02a3.21,3.21,0,0,1,.951.9,2.034,2.034,0,0,1,.365,1c0,.233,0,.47,0,.7a1.308,1.308,0,0,0,1.3,1.3h2.488a1.3,1.3,0,0,0,1.3-1.3v-.691a2,2,0,0,1,.364-1.012,3.21,3.21,0,0,1,.951-.9l.018-.013a7.13,7.13,0,0,0,2.337-2.534l.01-.018a7.044,7.044,0,0,0,.852-3.367h0a7.074,7.074,0,0,0-7.076-7.078" fill="#fff" fill-rule="evenodd"/>
    <path id="Path_139621" data-name="Path 139621" d="M184.626,109.252h3.011a.41.41,0,1,1,0,.821h-3.011a.411.411,0,1,1,0-.821" fill="#413b73" fill-rule="evenodd"/>
    <path id="Path_139622" data-name="Path 139622" d="M184.557,110.378h3.149a.251.251,0,0,1,0,.5h-3.149a.251.251,0,1,1,0-.5" fill="#413b73" fill-rule="evenodd"/>
    <path id="Path_139623" data-name="Path 139623" d="M184.666,105.144c-.015-.254-.02-.5-.016-.737s.019-.475.041-.7a6.17,6.17,0,0,1,.614-2.178,4.96,4.96,0,0,1,1.326-1.633,5.589,5.589,0,0,1,1.655-.908,7.342,7.342,0,0,1,2.027-.4q.353-.021.71-.012c.239,0,.479.02.716.044a.1.1,0,0,1,.088.108v.006a11.661,11.661,0,0,1-1.244,3.857,4.873,4.873,0,0,1-5.841,2.642.106.106,0,0,1-.054-.035.1.1,0,0,1-.021-.057" fill="#a0cdbc" fill-rule="evenodd"/>
    <path id="Path_139624" data-name="Path 139624" d="M186.161,99.763a4.984,4.984,0,0,0-.529-.49,5.679,5.679,0,0,0-1.654-.909,7.46,7.46,0,0,0-2.028-.4q-.353-.021-.709-.012c-.239,0-.48.02-.717.045a.1.1,0,0,0-.066.036.089.089,0,0,0-.021.071v.007a11.616,11.616,0,0,0,1.244,3.858,5.5,5.5,0,0,0,2.525,2.465c0-.061,0-.124,0-.185q.006-.363.041-.7a6.149,6.149,0,0,1,.614-2.178,4.966,4.966,0,0,1,1.3-1.611" fill="#a0cdbc" fill-rule="evenodd"/>
    <path id="Path_139625" data-name="Path 139625" d="M15.008,116.445A15.008,15.008,0,1,0,0,101.437a15.037,15.037,0,0,0,15.008,15.008" fill="#88d2b0" fill-rule="evenodd"/>
    <path id="Path_139626" data-name="Path 139626" d="M10.568,94.424h8.881a1.531,1.531,0,0,1,1.526,1.526v10.975a1.531,1.531,0,0,1-1.526,1.527H10.568a1.53,1.53,0,0,1-1.526-1.527V95.95a1.53,1.53,0,0,1,1.526-1.526" fill="#fff" fill-rule="evenodd"/>
    <path id="Path_139627" data-name="Path 139627" d="M10,94.424H20.02a.686.686,0,0,0,0-1.371H10a.686.686,0,1,0,0,1.371" fill="#30295e" fill-rule="evenodd"/>
    <path id="Path_139628" data-name="Path 139628" d="M10.581,90.513h8.854a1.273,1.273,0,0,1,1.27,1.269h0a1.274,1.274,0,0,1-1.27,1.27H10.581a1.274,1.274,0,0,1-1.27-1.27h0a1.273,1.273,0,0,1,1.27-1.269" fill="#fff" fill-rule="evenodd"/>
    <path id="Path_139629" data-name="Path 139629" d="M10,108.452H20.02a.685.685,0,0,1,0,1.371H10a.685.685,0,1,1,0-1.371" fill="#30295e" fill-rule="evenodd"/>
    <path id="Path_139630" data-name="Path 139630" d="M10.581,112.362h8.854a1.27,1.27,0,1,0,0-2.54H10.581a1.27,1.27,0,1,0,0,2.54" fill="#fff" fill-rule="evenodd"/>
    <path id="Path_139631" data-name="Path 139631" d="M15.008,105.682a4.244,4.244,0,1,0-4.244-4.244,4.253,4.253,0,0,0,4.244,4.244" fill="#ecbd78" fill-rule="evenodd"/>
    <path id="Path_139632" data-name="Path 139632" d="M12.677,101.961a.379.379,0,1,0-.379-.379.38.38,0,0,0,.379.379" fill="#875371" fill-rule="evenodd"/>
    <path id="Path_139633" data-name="Path 139633" d="M14,103.785a.379.379,0,1,0-.38-.379.379.379,0,0,0,.38.379" fill="#875371" fill-rule="evenodd"/>
    <path id="Path_139634" data-name="Path 139634" d="M15.686,100.823a.379.379,0,1,0-.379-.379.379.379,0,0,0,.379.379" fill="#875371" fill-rule="evenodd"/>
    <path id="Path_139635" data-name="Path 139635" d="M17.677,101.344a.38.38,0,1,0-.379-.379.38.38,0,0,0,.379.379" fill="#875371" fill-rule="evenodd"/>
    <path id="Path_139636" data-name="Path 139636" d="M16.824,103.856a.379.379,0,1,0-.379-.379.38.38,0,0,0,.379.379" fill="#875371" fill-rule="evenodd"/>
    <path id="Path_139637" data-name="Path 139637" d="M13.577,100.7a.379.379,0,1,0-.379-.379.379.379,0,0,0,.379.379" fill="#875371" fill-rule="evenodd"/>
    <path id="Path_139638" data-name="Path 139638" d="M15.283,103a.379.379,0,1,0-.379-.379.379.379,0,0,0,.379.379" fill="#875371" fill-rule="evenodd"/>
    <path id="Path_139639" data-name="Path 139639" d="M16.232,99.638a.38.38,0,1,0-.38-.379.379.379,0,0,0,.38.379" fill="#875371" fill-rule="evenodd"/>
    <path id="Path_139640" data-name="Path 139640" d="M14.644,98.761a.379.379,0,1,0-.379-.379.379.379,0,0,0,.379.379" fill="#875371" fill-rule="evenodd"/>
    <path id="Path_139641" data-name="Path 139641" d="M14.43,101.961a.379.379,0,1,0-.379-.379.38.38,0,0,0,.379.379" fill="#875371" fill-rule="evenodd"/>
    <path id="Path_139642" data-name="Path 139642" d="M12.2,100.088a.379.379,0,1,0-.38-.379.38.38,0,0,0,.38.379" fill="#875371" fill-rule="evenodd"/>
    <path id="Path_139643" data-name="Path 139643" d="M12.25,103.785a.379.379,0,1,0-.38-.379.379.379,0,0,0,.38.379" fill="#875371" fill-rule="evenodd"/>
    <path id="Path_139644" data-name="Path 139644" d="M14.9,105.184a.379.379,0,1,0-.379-.379.381.381,0,0,0,.379.379" fill="#875371" fill-rule="evenodd"/>
    <path id="Path_139645" data-name="Path 139645" d="M16.469,102.15a.379.379,0,1,0-.379-.379.379.379,0,0,0,.379.379" fill="#875371" fill-rule="evenodd"/>
    <path id="Path_139646" data-name="Path 139646" d="M18.365,102.86a.379.379,0,1,0-.379-.379.379.379,0,0,0,.379.379" fill="#875371" fill-rule="evenodd"/>
    <path id="Path_139647" data-name="Path 139647" d="M17.82,99.756a.379.379,0,1,0-.379-.379.379.379,0,0,0,.379.379" fill="#875371" fill-rule="evenodd"/>
  </g>
</svg>
