<svg id="Group_86640" data-name="Group 86640" xmlns="http://www.w3.org/2000/svg" xmlns:xlink="http://www.w3.org/1999/xlink" width="50.029" height="50" viewBox="0 0 50.029 50">
  <defs>
    <clipPath id="clip-path">
      <rect id="Rectangle_34947" data-name="Rectangle 34947" width="50.029" height="50" fill="#ef9310"/>
    </clipPath>
  </defs>
  <g id="Group_86639" data-name="Group 86639" clip-path="url(#clip-path)">
    <path id="Path_139783" data-name="Path 139783" d="M50.029,22.457a5.6,5.6,0,0,1-1.674,2.395c-2.382,2.359-4.745,4.738-7.119,7.106a5.682,5.682,0,0,1-.457.367c1.1,1.094,2.133,2.121,3.158,3.16.166.168.379.387.387.59a1.139,1.139,0,0,1-.268.778q-3.639,3.679-7.321,7.318a7.522,7.522,0,0,1-3.95,1.992c-.583.112-1-.127-1.088-.615-.081-.449.223-.812.791-.92A6.257,6.257,0,0,0,35.813,42.9q3.255-3.237,6.493-6.489A.9.9,0,0,0,42.4,36.3l-2.752-2.751-2.558,2.562c-.956.955-1.9,1.922-2.87,2.861a3.123,3.123,0,0,1-5.326-1.826,2.914,2.914,0,0,1,.393-1.923.8.8,0,0,1,1.106-.4.759.759,0,0,1,.265,1.136A1.571,1.571,0,0,0,31.8,38.334a1.654,1.654,0,0,0,1.435-.577q3.725-3.733,7.457-7.458c.585-.585,1.177-1.163,1.738-1.716L40.133,26.3c-.548.581-1.129,1.215-1.729,1.83-.943.967-1.9,1.923-2.849,2.882-.206.209-.41.419-.623.62-.492.464-.922.509-1.273.141s-.291-.793.192-1.271.955-.931,1.4-1.364l-2.774-2.764c-.078.072-.21.186-.332.31q-3.355,3.375-6.71,6.753a.771.771,0,0,1-1.091.092.723.723,0,0,1-.1-1.08,5.753,5.753,0,0,1,.55-.619q3.5-3.508,7.006-7.012c.57-.57.912-.57,1.485,0,1.035,1.034,2.067,2.071,3.129,3.136,1.3-1.3,2.57-2.585,3.845-3.863,1.4-1.406,2.854-2.766,4.2-4.223a3.164,3.164,0,0,1,5.508,1.342c0,.026.041.047.062.07Zm-6.45,4.9a.881.881,0,0,0,.138-.092q2.142-2.137,4.276-4.282a1.708,1.708,0,0,0,.351-.521,1.556,1.556,0,0,0-2.549-1.681c-1.412,1.4-2.81,2.8-4.211,4.208a1.662,1.662,0,0,0-.159.216l2.154,2.152" fill="#ef9310"/>
    <path id="Path_139784" data-name="Path 139784" d="M6.957,50c-.345-.079-.692-.151-1.035-.239A7.9,7.9,0,0,1,.3,39.963c.147-.527.5-.789.945-.694a.8.8,0,0,1,.56,1.064A6.376,6.376,0,0,0,3.5,46.668a5.8,5.8,0,0,0,4.214,1.76c11.538.013,23.076.029,34.615-.01A5.82,5.82,0,0,0,47.948,44.6a6.035,6.035,0,0,0-1.078-6.687c-.053-.062-.111-.118-.166-.179a.8.8,0,1,1,1.135-1.086,7.146,7.146,0,0,1,2.094,4.2,3.67,3.67,0,0,0,.1.367v1.855a1.684,1.684,0,0,0-.089.268,7.837,7.837,0,0,1-5.861,6.443c-.327.081-.656.15-.984.224Z" fill="#ef9310"/>
    <path id="Path_139785" data-name="Path 139785" d="M43.1,50c.328-.074.657-.143.984-.224a7.837,7.837,0,0,0,5.861-6.443,1.594,1.594,0,0,1,.09-.268V50Z" fill="#ef9310"/>
    <path id="Path_139786" data-name="Path 139786" d="M29.456,13.916c-1.159.911-2.312,1.812-3.455,2.726a.527.527,0,0,0-.185.359c-.012,2.131-.009,4.263-.009,6.406.7.14,1.383.267,2.059.416a5.468,5.468,0,0,1,.835.264.771.771,0,0,1,.5,1.015.8.8,0,0,1-1.008.456c-.646-.16-1.283-.372-1.937-.473A7.908,7.908,0,0,0,18,29.118a7.926,7.926,0,0,0-.773,3.3c-.012.13,0,.26-.013.39a.788.788,0,0,1-.777.782.754.754,0,0,1-.771-.824c.076-.888.21-1.772.322-2.658.016-.126.045-.251.068-.379-2.438-.221-5.78.758-6.956,3.947.172.065.347.129.52.2a4.41,4.41,0,0,1,2.851,3.158,1.545,1.545,0,0,1,.021.579.692.692,0,0,1-.717.662.732.732,0,0,1-.791-.651,2.794,2.794,0,0,0-2.408-2.408,1.806,1.806,0,0,0-.716.025c-.317.062-.625.174-.938.264A.816.816,0,0,1,5.8,35.021a.757.757,0,0,1,.621-.988A1.771,1.771,0,0,0,7.774,32.8a7.844,7.844,0,0,1,7.157-4.669c.584-.037,1.253.159,1.734-.067.454-.213.7-.855,1.062-1.285A9.032,9.032,0,0,1,23.8,23.515c.128-.015.254-.043.44-.075,0-.844.006-1.683-.008-2.523a.378.378,0,0,0-.189-.247c-.838-.467-1.678-.93-2.529-1.371a.44.44,0,0,0-.405.069A3.866,3.866,0,0,1,17,20.256a9.306,9.306,0,0,1-5.122-3.623c-.923-1.253-1.726-2.6-2.531-3.931-.426-.708-.124-1.259.7-1.339a18.98,18.98,0,0,1,7.166.458,8.549,8.549,0,0,1,3.589,2.1,3.771,3.771,0,0,1,1.219,3.861l2.231,1.217c-.111-2.882.341-5.721-.743-8.438-2.489.709-4.8-.244-6.413-2.632a16.072,16.072,0,0,1-2.219-5.74,10.8,10.8,0,0,1-.216-1.3A.737.737,0,0,1,15.5,0a16.52,16.52,0,0,1,7.262,2.033,6.631,6.631,0,0,1,3.006,3.655,3.678,3.678,0,0,1-.7,3.535.66.66,0,0,0-.165.494,15.122,15.122,0,0,1,.917,5.063l2.7-2.118c-1.171-2.331-.3-4.188,1.3-5.886a10.149,10.149,0,0,1,5.675-2.925c1.7-.324,3.443-.466,5.172-.629.841-.079,1.181.379.958,1.18a22.071,22.071,0,0,1-3.074,6.969,8.607,8.607,0,0,1-5.34,3.662,3.934,3.934,0,0,1-3.5-.939c-.073-.061-.154-.113-.25-.183M39.882,4.8c-.661.063-1.242.1-1.82.177a14.942,14.942,0,0,0-5.1,1.383,6.983,6.983,0,0,0-3.094,2.946,2.409,2.409,0,0,0-.064,2.344l3.26-2.56c.793-.622,1.58-1.252,2.381-1.863a.758.758,0,0,1,1.125.1.779.779,0,0,1-.164,1.122c-.073.064-.154.121-.23.181q-2.475,1.943-4.948,3.887c-.158.124-.312.254-.491.4a2.49,2.49,0,0,0,2.151.6A7.069,7.069,0,0,0,37.183,10.6a19.484,19.484,0,0,0,2.7-5.8M24.049,7.937a1.892,1.892,0,0,0,.2-1.8,7.128,7.128,0,0,0-1.206-1.855c-1.8-1.862-4.223-2.184-6.7-2.648.537,2.249,1.047,4.395,2.6,6.09A5.021,5.021,0,0,0,21.155,9.2a2.116,2.116,0,0,0,1.716-.133c-.115-.212-.209-.4-.316-.578a12.469,12.469,0,0,0-2.622-3.122A.783.783,0,0,1,19.9,4.044a.8.8,0,0,1,1.061.144,14.3,14.3,0,0,1,3.087,3.749M19.86,18.4c-.171-.1-.31-.176-.451-.253-1.127-.616-2.256-1.227-3.381-1.847-.547-.3-.711-.719-.469-1.15s.674-.509,1.225-.212c1.1.594,2.2,1.195,3.3,1.792.147.08.3.152.493.25a3.394,3.394,0,0,0,0-.416,3.167,3.167,0,0,0-1.425-2.014,9.638,9.638,0,0,0-5.834-1.736c-.675-.027-1.353,0-2.1,0a2.264,2.264,0,0,0,.152.344C12.21,14.3,13,15.5,13.917,16.592a6.936,6.936,0,0,0,3.616,2.2A2.345,2.345,0,0,0,19.86,18.4" fill="#ef9310"/>
    <path id="Path_139787" data-name="Path 139787" d="M23.479,36.714a3.12,3.12,0,0,0-2.906,1.936c-.345.815-.589.912-1.423.574a1.856,1.856,0,0,0-2.119.4,1.823,1.823,0,0,0-.492,2.014,1.918,1.918,0,0,0,1.655,1.328c.19.029.443.012.553.126a1.142,1.142,0,0,1,.381.714.83.83,0,0,1-.478.622,2.7,2.7,0,0,1-1.28-.041A3.506,3.506,0,0,1,19,37.573c.33.057.418-.109.559-.318a4.352,4.352,0,0,1,4.482-2.036A4.494,4.494,0,0,1,28,38.624a12.1,12.1,0,0,0,1.29,2.091A3.379,3.379,0,0,1,30.358,44.3a3.513,3.513,0,0,1-2.808,2.553,1.8,1.8,0,0,1-.582.015.776.776,0,1,1,.023-1.551,1.953,1.953,0,0,0,.485-3.838c-.937-.264-1-.355-.9-1.318a3.13,3.13,0,0,0-3.1-3.446" fill="#ef9310"/>
    <path id="Path_139788" data-name="Path 139788" d="M32.053,34.369a.778.778,0,1,1,.782-.773.784.784,0,0,1-.782.773" fill="#ef9310"/>
    <path id="Path_139789" data-name="Path 139789" d="M3.142,37.494a.778.778,0,1,1,.783-.773.785.785,0,0,1-.783.773" fill="#ef9310"/>
  </g>
</svg>
