<svg id="Group_86637" data-name="Group 86637" xmlns="http://www.w3.org/2000/svg" xmlns:xlink="http://www.w3.org/1999/xlink" width="49.157" height="50" viewBox="0 0 49.157 50">
  <defs>
    <clipPath id="clip-path">
      <rect id="Rectangle_34946" data-name="Rectangle 34946" width="49.157" height="50" fill="#ef9310"/>
    </clipPath>
  </defs>
  <g id="Group_86636" data-name="Group 86636" clip-path="url(#clip-path)">
    <path id="Path_139771" data-name="Path 139771" d="M40.381,18.457v.754q0,13.552,0,27.107c0,2.441-1.232,3.681-3.664,3.681H3.57A3.2,3.2,0,0,1,.118,47.55,5.031,5.031,0,0,1,.03,46.4c0-11.049.026-22.1-.03-33.146A3.421,3.421,0,0,1,3.614,9.627c8.736.052,17.472.021,26.208.021h.893a9.18,9.18,0,0,1,3.668-7.777A8.667,8.667,0,0,1,40.32.015a9.219,9.219,0,0,1,8.79,8.266,9.33,9.33,0,0,1-8.729,10.176m-5.5-1.385-.258.519c-.094.192-.186.384-.282.576a11.758,11.758,0,0,1-9.007,6.781c-2.11.341-4.244.528-6.362.824a13.26,13.26,0,0,0-9.031,5.1,15.96,15.96,0,0,1-2.071,2.184c-1.723,1.514-3.663,2.361-6.1,1.58,0,1.206,0,2.356,0,3.506,0,1.217.212,1.444,1.437,1.353a2.382,2.382,0,0,0,1.265-.381A7.262,7.262,0,0,0,6.2,37.349c1.854-3.06,6.312-3.749,9-2.337a3.23,3.23,0,0,1,1.479,4.7,8.271,8.271,0,0,0-.667,1.453c-.724,2.48-.013,4.724,1.217,6.865a.486.486,0,0,0,.35.208c1.17.015,2.339.009,3.552.009a1.816,1.816,0,0,0-.069-.307,12.914,12.914,0,0,1-.992-6.335c.183-2.667.347-5.336.546-8a4.805,4.805,0,0,1,2.749-4.186,10.4,10.4,0,0,1,7.917-.639A25.652,25.652,0,0,1,37.9,32.122c.207.132.42.255.6.363.581-1.813-.315-2.905-1.711-3.745-.328-.2-.7-.325-1.03-.517a12.864,12.864,0,0,1-1.9-1.171,2.443,2.443,0,0,1-.668-3.079,5.639,5.639,0,0,1,1.272-1.82c1.172-1.023,2.441-1.937,3.7-2.849.366-.265.548-.5.425-.854l-3.707-1.378M23.6,11.426c-.608,3.329-2.7,5.372-5.7,6.593a22.183,22.183,0,0,1-3.228,1.047c-2.536.606-5.1,1.1-7.634,1.706A9.344,9.344,0,0,0,2.3,23.164a1.732,1.732,0,0,0-.532,1.312c.026,2.462.045,4.925-.009,7.386a1.081,1.081,0,0,0,.927,1.215,3.517,3.517,0,0,0,2.773-.445,10.8,10.8,0,0,0,3.152-2.887,14.2,14.2,0,0,1,8.62-5.4c2.1-.4,4.227-.659,6.352-.877,4.215-.431,7.392-2.317,9.29-6.219a1.9,1.9,0,0,0-.2-2.5,18.113,18.113,0,0,1-1.873-3.319ZM38.6,40.357c-1.191-.635-2.264-1.114-3.236-1.747-1.506-.98-2.921-2.1-4.418-3.091A15.206,15.206,0,0,0,28.41,34.16c-.782-.328-1.1-.1-1.393.712-.093.262-.21.514-.317.771a9.587,9.587,0,0,0-.582,6.027,18.068,18.068,0,0,0,3.356,6.369.6.6,0,0,0,.426.2c2.441.011,4.882.021,7.323-.005a1.311,1.311,0,0,0,1.364-1.272c.029-2.266.011-4.533.011-6.608M47.385,9.183a7.454,7.454,0,1,0-7.4,7.47,7.472,7.472,0,0,0,7.4-7.47M27.4,48.252c-.56-.92-1.1-1.738-1.571-2.591a11.931,11.931,0,0,1-1.643-7.444,15.818,15.818,0,0,1,1.5-4.676,2.031,2.031,0,0,1,2.088-1.217,5.182,5.182,0,0,1,1.85.435,25.6,25.6,0,0,1,2.922,1.721c1.564,1.046,3.081,2.162,4.637,3.22a11.908,11.908,0,0,0,1.421.7c0-.92-.063-1.695.016-2.455a1.766,1.766,0,0,0-1.094-2.013c-2-1-3.883-2.26-5.924-3.162a8.389,8.389,0,0,0-7.328.138,3.113,3.113,0,0,0-1.9,2.748c-.195,2.858-.434,5.714-.59,8.574A9.651,9.651,0,0,0,22.97,47.8a.972.972,0,0,0,.671.432c1.218.042,2.438.02,3.759.02M21.786,11.39h-.7c-2.91,0-5.821.01-8.731-.01a.937.937,0,0,0-.9.517,14.454,14.454,0,0,1-8.476,6.341c-.384.1-.782.148-1.158.218v2.683c.647-.362,1.223-.725,1.832-1.017a28.973,28.973,0,0,1,6.2-1.811c2.288-.525,4.582-1.041,6.834-1.7a7.529,7.529,0,0,0,3.942-2.631,5.615,5.615,0,0,0,1.155-2.592m-6.51,36.825c-.116-.26-.2-.451-.288-.644a9.429,9.429,0,0,1-.921-5.675,15.016,15.016,0,0,1,1.067-3,1.539,1.539,0,0,0-.756-2.334,4.194,4.194,0,0,0-.651-.266,5.243,5.243,0,0,0-6.148,2.191A5.384,5.384,0,0,1,3.4,41.241a13.8,13.8,0,0,1-1.626-.078c0,.678.038,1.319-.012,1.954-.043.543.222.689.68.779a5.313,5.313,0,0,0,3.866-.808c.969-.586,1.869-1.282,2.814-1.909.674-.447,1.361-1.009,2.234-.58s.833,1.3.942,2.109a23.845,23.845,0,0,0,.716,4.085c.582,1.82.185,1.457,2.261,1.422m-3.85.037c-.364-1.938-.723-3.844-1.089-5.786-2.5,1.806-4.984,3.885-8.562,3.088,0,.361,0,.633,0,.906.011,1.3.5,1.788,1.784,1.791q2.277,0,4.553,0h3.314M9.776,11.4c-2.372,0-4.545-.023-6.716.015a1.155,1.155,0,0,0-1.206,1.049c-.077,1.375-.024,2.757-.024,4.23,3.4-.612,5.753-2.642,7.946-5.294M38.561,27.7V21.136c-.188.118-.315.189-.431.274-.534.39-1.092.753-1.588,1.186a11.112,11.112,0,0,0-1.427,1.459c-.692.88-.543,1.515.415,2.11.18.113.374.2.564.3.813.409,1.627.816,2.467,1.237" fill="#ef9310"/>
    <path id="Path_139772" data-name="Path 139772" d="M4.875,5.681c-.907-1-1.017-1.355-.6-1.813s.807-.358,1.875.527c1.1-.884,1.455-.983,1.88-.529s.3.83-.577,1.821c.373.579,1.38,1.073.456,1.935-.4.377-.819.206-1.738-.647-.56.378-1.1,1.407-1.907.494-.693-.782.221-1.226.607-1.788" fill="#ef9310"/>
    <path id="Path_139773" data-name="Path 139773" d="M15.785,5.238a.859.859,0,1,1,.889-.82.849.849,0,0,1-.889.82" fill="#ef9310"/>
    <path id="Path_139774" data-name="Path 139774" d="M15.886,31.579a.878.878,0,0,1-.154,1.748.877.877,0,0,1,.154-1.748" fill="#ef9310"/>
    <path id="Path_139775" data-name="Path 139775" d="M18.434,29.808a.865.865,0,1,1,.877-.84.868.868,0,0,1-.877.84" fill="#ef9310"/>
    <path id="Path_139776" data-name="Path 139776" d="M20.878,21.929a8.09,8.09,0,0,1-1.223-.168,1.124,1.124,0,0,1-.476-2.053A8.266,8.266,0,0,1,21.347,18.5,3.692,3.692,0,0,0,23.7,15.753a4.487,4.487,0,0,1,3.433-3.522,3.085,3.085,0,0,1,3.887,3.933,6.013,6.013,0,0,1-3.661,4.406,19.95,19.95,0,0,1-6.479,1.359M22.585,19.9l.111.248c1.4-.427,2.826-.79,4.2-1.3a4.089,4.089,0,0,0,2.469-3.424c.19-.987-.433-1.588-1.448-1.538A2.669,2.669,0,0,0,25.5,15.876,5.88,5.88,0,0,1,22.585,19.9" fill="#ef9310"/>
    <path id="Path_139777" data-name="Path 139777" d="M7.016,27.2a.866.866,0,0,1-.85.869.877.877,0,0,1,.016-1.754.866.866,0,0,1,.834.885" fill="#ef9310"/>
    <path id="Path_139778" data-name="Path 139778" d="M17.545,21.061a.858.858,0,1,1-.832-.878.846.846,0,0,1,.832.878" fill="#ef9310"/>
    <path id="Path_139779" data-name="Path 139779" d="M29.819,39.493a.865.865,0,0,1,.9.813.878.878,0,1,1-.9-.813" fill="#ef9310"/>
    <path id="Path_139780" data-name="Path 139780" d="M35.109,44.733a.877.877,0,0,1-1.753-.029.877.877,0,0,1,1.753.029" fill="#ef9310"/>
    <path id="Path_139781" data-name="Path 139781" d="M45.145,4.905a3.559,3.559,0,0,1-.156.442c-.866,1.836-1.723,3.677-2.622,5.5a1.741,1.741,0,0,1-.739.742c-1.8.887-3.626,1.73-5.44,2.592a.921.921,0,0,1-1.28-1.3c.856-1.793,1.688-3.6,2.565-5.382a1.748,1.748,0,0,1,.719-.759c1.838-.91,3.7-1.781,5.553-2.652a.9.9,0,0,1,1.4.823M41.23,9.186,42.423,6.65,39.931,7.841l1.3,1.345m-2.638.024-1.061,2.24.116.088,2.234-1.057L38.592,9.21" fill="#ef9310"/>
    <path id="Path_139782" data-name="Path 139782" d="M14.049,13.168a.88.88,0,0,1,.882.839.878.878,0,0,1-1.755.012.886.886,0,0,1,.873-.851" fill="#ef9310"/>
  </g>
</svg>
