<svg id="Group_86638" data-name="Group 86638" xmlns="http://www.w3.org/2000/svg" xmlns:xlink="http://www.w3.org/1999/xlink" width="44.908" height="50" viewBox="0 0 44.908 50">
  <defs>
    <clipPath id="clip-path">
      <rect id="Rectangle_34944" data-name="Rectangle 34944" width="44.908" height="50" fill="#ef9310"/>
    </clipPath>
  </defs>
  <g id="Group_86632" data-name="Group 86632" clip-path="url(#clip-path)">
    <path id="Path_139753" data-name="Path 139753" d="M40.523,50H4.385c-1.939-.733-2.442-1.472-2.442-3.586V13.524a2.964,2.964,0,0,1,0-5.565q0-2.384,0-4.777A2.946,2.946,0,0,1,5.144,0Q22.453,0,39.761,0a2.952,2.952,0,0,1,3.2,3.228q0,2.366,0,4.733a2.967,2.967,0,0,1,0,5.569v17.6q0,7.882,0,15.768A2.913,2.913,0,0,1,40.7,49.917a1.318,1.318,0,0,0-.174.083M3.9,13.673V46.742c0,1,.311,1.305,1.319,1.305H39.693c1.008,0,1.319-.307,1.319-1.305V13.673H27.285c-.163,0-.327.009-.488-.006a.971.971,0,0,1-.02-1.939c.161-.016.325-.007.488-.007H41.574c.923,0,1.4-.337,1.387-.988s-.471-.965-1.363-.965H3.311a4.18,4.18,0,0,0-.488.009.971.971,0,0,0,.02,1.935,4.675,4.675,0,0,0,.488.008H17.64c.163,0,.327-.009.488.007a.971.971,0,0,1-.017,1.939c-.161.015-.325.006-.488.006H3.9Zm.046-9.8a.568.568,0,0,0,.113.027c.537,0,1.074,0,1.611.007.709.005,1.156.383,1.157.973s-.446.973-1.153.978c-.58,0-1.16,0-1.738,0V7.774H40.984V5.86c-.609,0-1.191,0-1.774,0A1,1,0,0,1,38.085,4.9c-.012-.592.437-.989,1.135-.995.582,0,1.164,0,1.738,0,.183-1.352.013-1.974-1.576-1.97q-16.869.048-33.737,0c-1.773,0-1.812.554-1.736,1.865a.309.309,0,0,0,.033.071" fill="#ef9310"/>
    <path id="Path_139754" data-name="Path 139754" d="M21.424,41.282a3.253,3.253,0,0,1-.649-.067,3.988,3.988,0,0,0-2.817.451,6.272,6.272,0,0,1-3.6.62A6.68,6.68,0,0,1,11.3,41.068,36.057,36.057,0,0,1,7.9,38.23a2.593,2.593,0,0,1-.365-3.554A18.158,18.158,0,0,1,9.5,32.448c.629-.657,1.322-1.254,1.962-1.9a5.732,5.732,0,0,0,1.608-2.852,6.231,6.231,0,0,1,2.549-3.916c1.486-1.046,3.038-2,4.589-2.95a2.245,2.245,0,0,1,2.256-.048c1.523.8,2.753.3,3.909-.723A8.605,8.605,0,0,0,27.4,19.1a3.217,3.217,0,0,1,3.339-1.107,10.2,10.2,0,0,1,6.111,3.56,4.08,4.08,0,0,1,.827,3.831,25.28,25.28,0,0,0-.646,4.331,5.339,5.339,0,0,1-3.322,4.922c-.771.343-1.566.633-2.34.969a1.414,1.414,0,0,0-.574.412,4.677,4.677,0,0,1-3.1,1.848,1.542,1.542,0,0,0-.732.4c-.527.506-.988,1.083-1.524,1.578a5.635,5.635,0,0,1-4.014,1.44m.045-1.954a3.787,3.787,0,0,0,2.871-1.121c.466-.476.9-.985,1.366-1.461a2.4,2.4,0,0,1,1.51-.818,2.575,2.575,0,0,0,2.022-1.1,2.9,2.9,0,0,1,1.515-1.087c.734-.255,1.448-.576,2.162-.884a3.489,3.489,0,0,0,2.171-3.234c.143-1.678.459-3.343.761-5a1.933,1.933,0,0,0-.354-1.6,7.925,7.925,0,0,0-5.474-3.125,1.079,1.079,0,0,0-1.04.394,9.275,9.275,0,0,1-.8.788c-1.865,1.748-3.889,2.817-6.466,1.5a.19.19,0,0,0-.093-.022,1.587,1.587,0,0,0-.607.062,24.188,24.188,0,0,0-4.551,3,4.365,4.365,0,0,0-1.45,2.371,8.332,8.332,0,0,1-2.521,4.31c-.646.619-1.316,1.214-1.945,1.849a14.286,14.286,0,0,0-1.317,1.5.82.82,0,0,0,.116,1.3,35.812,35.812,0,0,0,2.832,2.381,4.478,4.478,0,0,0,3.607,1,11.4,11.4,0,0,0,2.062-.724,4.487,4.487,0,0,1,2.8-.35,5.762,5.762,0,0,0,.818.088" fill="#ef9310"/>
    <path id="Path_139755" data-name="Path 139755" d="M22.473,13.668a.973.973,0,1,1,.954-.967.982.982,0,0,1-.954.967" fill="#ef9310"/>
    <path id="Path_139756" data-name="Path 139756" d="M10.7,5.857c-.324,0-.649.015-.972,0a.97.97,0,0,1,.01-1.939c.664-.021,1.329-.022,1.993,0a.963.963,0,0,1,.948.973.974.974,0,0,1-.958.966c-.34.018-.681,0-1.021,0" fill="#ef9310"/>
    <path id="Path_139757" data-name="Path 139757" d="M16.581,5.859c-.308,0-.616.009-.924,0a.982.982,0,0,1-1.013-.962.972.972,0,0,1,.991-.983c.631-.017,1.264-.015,1.9,0a.977.977,0,0,1,1.014.961.988.988,0,0,1-1.039.986c-.308.009-.616,0-.924,0" fill="#ef9310"/>
    <path id="Path_139758" data-name="Path 139758" d="M22.445,5.858c-.324,0-.649.013-.972,0a.972.972,0,1,1,.018-1.943c.648-.017,1.3-.018,1.944,0a.967.967,0,0,1,.969.955.98.98,0,0,1-.987.988c-.323.014-.648,0-.972,0" fill="#ef9310"/>
    <path id="Path_139759" data-name="Path 139759" d="M28.3,5.858c-.308,0-.616.009-.924,0a.982.982,0,0,1-1.015-.96.97.97,0,0,1,.988-.984c.648-.018,1.3-.019,1.945,0a.967.967,0,0,1,.967.956.979.979,0,0,1-.989.986c-.323.014-.648,0-.972,0" fill="#ef9310"/>
    <path id="Path_139760" data-name="Path 139760" d="M34.127,5.855c-.324,0-.649.019-.972,0a.971.971,0,0,1-.93-.992.955.955,0,0,1,.928-.943c.68-.025,1.362-.025,2.042,0a.959.959,0,0,1,.93.99.971.971,0,0,1-.929.945c-.355.022-.712,0-1.069,0" fill="#ef9310"/>
    <path id="Path_139761" data-name="Path 139761" d="M30.714,26.561a.982.982,0,0,1,.989.981,1,1,0,0,1-.963.964.964.964,0,0,1-.975-.988.95.95,0,0,1,.949-.957" fill="#ef9310"/>
    <path id="Path_139762" data-name="Path 139762" d="M20.422,29.9a.966.966,0,0,1-.986-.977,1,1,0,0,1,.967-.96.98.98,0,0,1,.979.99.951.951,0,0,1-.96.947" fill="#ef9310"/>
    <path id="Path_139763" data-name="Path 139763" d="M23.617,34.32a.974.974,0,0,1-.958.97.964.964,0,1,1-.013-1.927.97.97,0,0,1,.971.957" fill="#ef9310"/>
  </g>
</svg>
